<svg width="582" height="174" viewBox="0 0 582 174" fill="none" xmlns="http://www.w3.org/2000/svg">
<mask id="mask0_9:54" style="mask-type:alpha" maskUnits="userSpaceOnUse" x="0" y="47" width="582" height="127">
<ellipse cx="291" cy="110.34" rx="291" ry="62.7305" fill="#097EBF"/>
</mask>
<g mask="url(#mask0_9:54)">
<ellipse cx="291" cy="110.34" rx="128.653" ry="104.059" fill="#097EBF"/>
</g>
<g filter="url(#filter0_i_9:54)">
<mask id="mask1_9:54" style="mask-type:alpha" maskUnits="userSpaceOnUse" x="15" y="49" width="553" height="120">
<ellipse cx="291.479" cy="108.653" rx="276.479" ry="59.6003" fill="#D1E5F0"/>
</mask>
<g mask="url(#mask1_9:54)">
<ellipse cx="291.479" cy="108.653" rx="122.233" ry="98.8663" fill="#D1E5F0"/>
</g>
</g>
<g filter="url(#filter1_i_9:54)">
<rect x="310" y="77.0529" width="22.0719" height="91.7725" rx="2" fill="white"/>
</g>
<rect x="310.5" y="77.5529" width="21.0719" height="90.7725" rx="1.5" stroke="black"/>
<g filter="url(#filter2_i_9:54)">
<rect x="288" y="77.0529" width="22.0719" height="91.7725" rx="2" fill="white"/>
</g>
<rect x="288.5" y="77.5529" width="21.0719" height="90.7725" rx="1.5" stroke="black"/>
<g filter="url(#filter3_i_9:54)">
<rect x="266" y="76.6094" width="22.0719" height="91.7725" rx="2" fill="white"/>
</g>
<rect x="266.5" y="77.1094" width="21.0719" height="90.7725" rx="1.5" stroke="black"/>
<g filter="url(#filter4_i_9:54)">
<rect x="244" y="76.6094" width="22.0719" height="91.7725" rx="2" fill="white"/>
</g>
<rect x="244.5" y="77.1094" width="21.0719" height="90.7725" rx="1.5" stroke="black"/>
<rect x="260.216" y="76.6512" width="11.6168" height="63.8922" rx="2" fill="black"/>
<rect x="282.287" y="76.6512" width="11.6168" height="63.8922" rx="2" fill="black"/>
<rect x="304.359" y="76.6512" width="11.6168" height="63.8922" rx="2" fill="black"/>
<path d="M175.413 125.442C175.413 133.141 169.172 139.382 161.473 139.382C153.774 139.382 147.533 133.141 147.533 125.442C147.533 117.743 153.774 111.502 161.473 111.502C169.172 111.502 175.413 117.743 175.413 125.442Z" fill="white"/>
<path d="M182.383 139.382C182.383 147.081 176.142 153.322 168.443 153.322C160.744 153.322 154.503 147.081 154.503 139.382C154.503 131.683 160.744 125.442 168.443 125.442C176.142 125.442 182.383 131.683 182.383 139.382Z" fill="white"/>
<path d="M196.323 127.765C196.323 135.464 190.082 141.705 182.383 141.705C174.684 141.705 168.443 135.464 168.443 127.765C168.443 120.066 174.684 113.825 182.383 113.825C190.082 113.825 196.323 120.066 196.323 127.765Z" fill="white"/>
<path d="M196.323 116.148C196.323 123.847 190.082 130.088 182.383 130.088C174.684 130.088 168.443 123.847 168.443 116.148C168.443 108.449 174.684 102.208 182.383 102.208C190.082 102.208 196.323 108.449 196.323 116.148Z" fill="white"/>
<path d="M205.617 137.058C205.617 144.757 199.376 150.999 191.677 150.999C183.978 150.999 177.737 144.757 177.737 137.058C177.737 129.36 183.978 123.118 191.677 123.118C199.376 123.118 205.617 129.36 205.617 137.058Z" fill="white"/>
<path d="M216.072 119.633C216.072 127.332 209.831 133.573 202.132 133.573C194.433 133.573 188.192 127.332 188.192 119.633C188.192 111.934 194.433 105.693 202.132 105.693C209.831 105.693 216.072 111.934 216.072 119.633Z" fill="white"/>
<path d="M401.94 84.783C401.94 92.4819 395.699 98.7231 388 98.7231C380.301 98.7231 374.06 92.4819 374.06 84.783C374.06 77.0841 380.301 70.8429 388 70.8429C395.699 70.8429 401.94 77.0841 401.94 84.783Z" fill="white"/>
<path d="M408.91 98.7231C408.91 106.422 402.669 112.663 394.97 112.663C387.271 112.663 381.03 106.422 381.03 98.7231C381.03 91.0242 387.271 84.783 394.97 84.783C402.669 84.783 408.91 91.0242 408.91 98.7231Z" fill="white"/>
<path d="M422.85 87.1063C422.85 94.8052 416.609 101.046 408.91 101.046C401.211 101.046 394.97 94.8052 394.97 87.1063C394.97 79.4074 401.211 73.1662 408.91 73.1662C416.609 73.1662 422.85 79.4074 422.85 87.1063Z" fill="white"/>
<path d="M422.85 75.4896C422.85 83.1885 416.609 89.4297 408.91 89.4297C401.211 89.4297 394.97 83.1885 394.97 75.4896C394.97 67.7906 401.211 61.5494 408.91 61.5494C416.609 61.5494 422.85 67.7906 422.85 75.4896Z" fill="white"/>
<path d="M432.144 96.3997C432.144 104.099 425.902 110.34 418.204 110.34C410.505 110.34 404.263 104.099 404.263 96.3997C404.263 88.7008 410.505 82.4596 418.204 82.4596C425.902 82.4596 432.144 88.7008 432.144 96.3997Z" fill="white"/>
<path d="M442.599 78.9746C442.599 86.6735 436.358 92.9147 428.659 92.9147C420.96 92.9147 414.719 86.6735 414.719 78.9746C414.719 71.2757 420.96 65.0345 428.659 65.0345C436.358 65.0345 442.599 71.2757 442.599 78.9746Z" fill="white"/>
<g filter="url(#filter5_i_9:54)">
<rect x="241.629" y="76.6512" width="92.9341" height="12.7784" rx="2" fill="#A78612"/>
</g>
<mask id="path-19-outside-1_9:54" maskUnits="userSpaceOnUse" x="148.062" y="0" width="282" height="43" fill="black">
<rect fill="white" x="148.062" width="282" height="43"/>
<path d="M152.062 35.3594V6.17969C152.062 5.57031 152.281 5.05469 152.719 4.63281C153.156 4.21094 153.68 4 154.289 4H181.312C181.922 4 182.438 4.21875 182.859 4.65625C183.297 5.09375 183.516 5.61719 183.516 6.22656V8.42969C183.516 9.03906 183.297 9.5625 182.859 10C182.438 10.4219 181.922 10.6328 181.312 10.6328H160.898V18.8828H177.516C178.125 18.8828 178.641 19.1016 179.062 19.5391C179.5 19.9766 179.719 20.4922 179.719 21.0859V23.3125C179.719 23.9219 179.5 24.4453 179.062 24.8828C178.641 25.3047 178.125 25.5156 177.516 25.5156H160.898V35.3594C160.898 36 160.68 36.5391 160.242 36.9766C159.82 37.3984 159.305 37.6094 158.695 37.6094H154.289C153.68 37.6094 153.156 37.3984 152.719 36.9766C152.281 36.5391 152.062 36 152.062 35.3594Z"/>
<path d="M187.688 34.7031C185.25 32.4531 184.031 29.1406 184.031 24.7656C184.031 20.375 185.25 17.0625 187.688 14.8281C190.125 12.5781 193.625 11.4531 198.188 11.4531C202.766 11.4531 206.273 12.5781 208.711 14.8281C211.148 17.0625 212.367 20.375 212.367 24.7656C212.367 29.1406 211.148 32.4531 208.711 34.7031C206.273 36.9531 202.766 38.0781 198.188 38.0781C193.625 38.0781 190.125 36.9531 187.688 34.7031ZM193.617 18.6719C192.648 19.9375 192.164 21.9609 192.164 24.7422C192.164 27.5234 192.648 29.5547 193.617 30.8359C194.586 32.1172 196.109 32.7578 198.188 32.7578C200.281 32.7578 201.812 32.1172 202.781 30.8359C203.766 29.5547 204.258 27.5234 204.258 24.7422C204.258 21.9609 203.766 19.9375 202.781 18.6719C201.812 17.4062 200.281 16.7734 198.188 16.7734C196.109 16.7734 194.586 17.4062 193.617 18.6719Z"/>
<path d="M216.703 26.8047V13.375C216.703 12.9531 216.836 12.6094 217.102 12.3438C217.383 12.0625 217.727 11.9219 218.133 11.9219H223.383C223.789 11.9219 224.125 12.0625 224.391 12.3438C224.672 12.6094 224.812 12.9531 224.812 13.375V26.8047C224.812 30.5547 226.297 32.4297 229.266 32.4297C231.219 32.4297 233.32 31.3047 235.57 29.0547V13.375C235.57 12.9531 235.703 12.6094 235.969 12.3438C236.25 12.0625 236.594 11.9219 237 11.9219H242.227C242.648 11.9219 242.992 12.0625 243.258 12.3438C243.539 12.6094 243.68 12.9531 243.68 13.375V36.1797C243.68 36.5859 243.539 36.9297 243.258 37.2109C242.992 37.4766 242.648 37.6094 242.227 37.6094H237C236.594 37.6094 236.25 37.4766 235.969 37.2109C235.703 36.9297 235.57 36.5859 235.57 36.1797V34.6797C232.883 36.9453 230.016 38.0781 226.969 38.0781C223.938 38.0781 221.469 37.1562 219.562 35.3125C217.656 33.4531 216.703 30.6172 216.703 26.8047Z"/>
<path d="M267.234 17.875L263.625 17.7344C261.516 17.7344 259.5 18.8906 257.578 21.2031V36.1797C257.578 36.6016 257.438 36.9453 257.156 37.2109C256.891 37.4766 256.555 37.6094 256.148 37.6094H250.898C250.477 37.6094 250.133 37.4766 249.867 37.2109C249.602 36.9453 249.469 36.6016 249.469 36.1797V13.375C249.469 12.9531 249.602 12.6094 249.867 12.3438C250.148 12.0625 250.492 11.9219 250.898 11.9219H256.148C256.57 11.9219 256.914 12.0625 257.18 12.3438C257.445 12.6094 257.578 12.9531 257.578 13.375V14.8516C259.172 13.6953 260.703 12.8438 262.172 12.2969C263.656 11.7344 265.594 11.4531 267.984 11.4531C268.406 11.4531 268.75 11.5938 269.016 11.875C269.297 12.1406 269.438 12.4766 269.438 12.8828V16.4453C269.438 16.8672 269.297 17.2109 269.016 17.4766C268.75 17.7422 268.406 17.875 267.984 17.875H267.234Z"/>
<path d="M272.812 36.1797V5.45312C272.812 5.03125 272.945 4.6875 273.211 4.42188C273.492 4.14062 273.836 4 274.242 4H279.492C279.898 4 280.234 4.14062 280.5 4.42188C280.781 4.6875 280.922 5.03125 280.922 5.45312V14.8516C283.609 12.5859 286.469 11.4531 289.5 11.4531C292.547 11.4531 295.023 12.3828 296.93 14.2422C298.836 16.0859 299.789 18.9141 299.789 22.7266V36.1797C299.789 36.5859 299.648 36.9297 299.367 37.2109C299.102 37.4766 298.758 37.6094 298.336 37.6094H293.109C292.703 37.6094 292.359 37.4766 292.078 37.2109C291.812 36.9297 291.68 36.5859 291.68 36.1797V22.7266C291.68 18.9922 290.188 17.125 287.203 17.125C285.25 17.125 283.156 18.2422 280.922 20.4766V36.1797C280.922 36.5859 280.781 36.9297 280.5 37.2109C280.234 37.4766 279.898 37.6094 279.492 37.6094H274.242C273.836 37.6094 273.492 37.4766 273.211 37.2109C272.945 36.9297 272.812 36.5859 272.812 36.1797Z"/>
<path d="M307.219 35.9219C305.156 34.4844 304.125 32.4531 304.125 29.8281C304.125 27.2031 305.156 25.1875 307.219 23.7812C309.297 22.375 311.969 21.6719 315.234 21.6719H322.992C322.992 19.8438 322.609 18.5703 321.844 17.8516C321.078 17.1328 319.734 16.7734 317.812 16.7734C315.906 16.7734 314.562 17.25 313.781 18.2031C313.016 19.1406 312.07 19.6094 310.945 19.6094H307.453C307.031 19.6094 306.68 19.4766 306.398 19.2109C306.133 18.9297 306 18.5859 306 18.1797C306 13.6953 310.258 11.4531 318.773 11.4531C322.492 11.4531 325.477 12.2891 327.727 13.9609C329.977 15.6172 331.102 18.1875 331.102 21.6719V36.1797C331.102 36.6016 330.969 36.9453 330.703 37.2109C330.438 37.4766 330.094 37.6094 329.672 37.6094H325.148C324.727 37.6094 324.383 37.4766 324.117 37.2109C323.852 36.9297 323.719 36.5859 323.719 36.1797V35.4531C321.25 37.2188 318.398 38.0938 315.164 38.0781C311.945 38.0781 309.297 37.3594 307.219 35.9219ZM315.797 26.9922C314.703 26.9922 313.836 27.2578 313.195 27.7891C312.57 28.3203 312.258 29.0078 312.258 29.8516C312.258 30.6953 312.586 31.3906 313.242 31.9375C313.898 32.4844 314.828 32.7578 316.031 32.7578C318.438 32.7578 320.758 32.0547 322.992 30.6484V26.9922H315.797Z"/>
<path d="M336.891 36.1797V13.375C336.891 12.9531 337.023 12.6094 337.289 12.3438C337.57 12.0625 337.914 11.9219 338.32 11.9219H343.57C343.977 11.9219 344.312 12.0625 344.578 12.3438C344.859 12.6094 345 12.9531 345 13.375V14.8516C347.688 12.5859 350.547 11.4531 353.578 11.4531C356.625 11.4531 359.102 12.3828 361.008 14.2422C362.914 16.0859 363.867 18.9141 363.867 22.7266V36.1797C363.867 36.5859 363.727 36.9297 363.445 37.2109C363.18 37.4766 362.836 37.6094 362.414 37.6094H357.188C356.781 37.6094 356.438 37.4766 356.156 37.2109C355.891 36.9297 355.758 36.5859 355.758 36.1797V22.7266C355.758 18.9922 354.266 17.125 351.281 17.125C349.328 17.125 347.234 18.2422 345 20.4766V36.1797C345 36.5859 344.859 36.9297 344.578 37.2109C344.312 37.4766 343.977 37.6094 343.57 37.6094H338.32C337.914 37.6094 337.57 37.4766 337.289 37.2109C337.023 36.9297 336.891 36.5859 336.891 36.1797Z"/>
<path d="M379.688 38.0781C376.422 38.0781 373.688 36.9297 371.484 34.6328C369.297 32.3359 368.203 29.0469 368.203 24.7656C368.203 20.4688 369.336 17.1797 371.602 14.8984C373.883 12.6016 376.945 11.4531 380.789 11.4531C382.773 11.4531 385.031 11.8516 387.562 12.6484V5.45312C387.562 5.03125 387.695 4.6875 387.961 4.42188C388.242 4.14062 388.586 4 388.992 4H394.219C394.641 4 394.984 4.14062 395.25 4.42188C395.531 4.6875 395.672 5.03125 395.672 5.45312V36.1797C395.672 36.5859 395.531 36.9297 395.25 37.2109C394.984 37.4766 394.641 37.6094 394.219 37.6094H389.719C389.297 37.6094 388.953 37.4766 388.688 37.2109C388.422 36.9297 388.289 36.5859 388.289 36.1797V35.4531C385.82 37.2031 382.953 38.0781 379.688 38.0781ZM382.477 17.125C380.32 17.125 378.797 17.7344 377.906 18.9531C377.016 20.1562 376.57 22.0938 376.57 24.7656C376.57 27.4375 376.992 29.3828 377.836 30.6016C378.68 31.8203 379.945 32.4297 381.633 32.4297C383.336 32.4297 385.312 31.7266 387.562 30.3203V18.0625C385.547 17.4375 383.852 17.125 382.477 17.125Z"/>
<path d="M399.984 19.0234C399.984 13.9766 404.055 11.4531 412.195 11.4531C420.758 11.4531 425.039 13.6953 425.039 18.1797C425.039 18.5859 424.906 18.9297 424.641 19.2109C424.375 19.4766 424.031 19.6094 423.609 19.6094H420.117C418.992 19.6094 418.047 19.1406 417.281 18.2031C416.516 17.25 415.008 16.7734 412.758 16.7734C409.664 16.7734 408.117 17.5234 408.117 19.0234C408.117 19.7266 408.719 20.3125 409.922 20.7812C411.141 21.25 412.617 21.6641 414.352 22.0234C416.102 22.3672 417.844 22.8125 419.578 23.3594C421.312 23.9062 422.781 24.7812 423.984 25.9844C425.203 27.1719 425.812 28.6797 425.812 30.5078C425.812 35.5547 421.516 38.0781 412.922 38.0781C404.328 38.0781 400.031 35.8438 400.031 31.375C400.031 30.9531 400.164 30.6094 400.43 30.3438C400.711 30.0625 401.062 29.9219 401.484 29.9219H404.977C406.102 29.9219 407.047 30.3984 407.812 31.3516C408.578 32.2891 410.086 32.7578 412.336 32.7578C415.914 32.7578 417.703 32.0078 417.703 30.5078C417.703 29.8047 417.094 29.2188 415.875 28.75C414.672 28.2812 413.195 27.8672 411.445 27.5078C409.695 27.1328 407.953 26.6797 406.219 26.1484C404.5 25.6016 403.031 24.7266 401.812 23.5234C400.594 22.3203 399.984 20.8203 399.984 19.0234Z"/>
</mask>
<path d="M152.062 35.3594V6.17969C152.062 5.57031 152.281 5.05469 152.719 4.63281C153.156 4.21094 153.68 4 154.289 4H181.312C181.922 4 182.438 4.21875 182.859 4.65625C183.297 5.09375 183.516 5.61719 183.516 6.22656V8.42969C183.516 9.03906 183.297 9.5625 182.859 10C182.438 10.4219 181.922 10.6328 181.312 10.6328H160.898V18.8828H177.516C178.125 18.8828 178.641 19.1016 179.062 19.5391C179.5 19.9766 179.719 20.4922 179.719 21.0859V23.3125C179.719 23.9219 179.5 24.4453 179.062 24.8828C178.641 25.3047 178.125 25.5156 177.516 25.5156H160.898V35.3594C160.898 36 160.68 36.5391 160.242 36.9766C159.82 37.3984 159.305 37.6094 158.695 37.6094H154.289C153.68 37.6094 153.156 37.3984 152.719 36.9766C152.281 36.5391 152.062 36 152.062 35.3594Z" fill="#08496D"/>
<path d="M187.688 34.7031C185.25 32.4531 184.031 29.1406 184.031 24.7656C184.031 20.375 185.25 17.0625 187.688 14.8281C190.125 12.5781 193.625 11.4531 198.188 11.4531C202.766 11.4531 206.273 12.5781 208.711 14.8281C211.148 17.0625 212.367 20.375 212.367 24.7656C212.367 29.1406 211.148 32.4531 208.711 34.7031C206.273 36.9531 202.766 38.0781 198.188 38.0781C193.625 38.0781 190.125 36.9531 187.688 34.7031ZM193.617 18.6719C192.648 19.9375 192.164 21.9609 192.164 24.7422C192.164 27.5234 192.648 29.5547 193.617 30.8359C194.586 32.1172 196.109 32.7578 198.188 32.7578C200.281 32.7578 201.812 32.1172 202.781 30.8359C203.766 29.5547 204.258 27.5234 204.258 24.7422C204.258 21.9609 203.766 19.9375 202.781 18.6719C201.812 17.4062 200.281 16.7734 198.188 16.7734C196.109 16.7734 194.586 17.4062 193.617 18.6719Z" fill="#08496D"/>
<path d="M216.703 26.8047V13.375C216.703 12.9531 216.836 12.6094 217.102 12.3438C217.383 12.0625 217.727 11.9219 218.133 11.9219H223.383C223.789 11.9219 224.125 12.0625 224.391 12.3438C224.672 12.6094 224.812 12.9531 224.812 13.375V26.8047C224.812 30.5547 226.297 32.4297 229.266 32.4297C231.219 32.4297 233.32 31.3047 235.57 29.0547V13.375C235.57 12.9531 235.703 12.6094 235.969 12.3438C236.25 12.0625 236.594 11.9219 237 11.9219H242.227C242.648 11.9219 242.992 12.0625 243.258 12.3438C243.539 12.6094 243.68 12.9531 243.68 13.375V36.1797C243.68 36.5859 243.539 36.9297 243.258 37.2109C242.992 37.4766 242.648 37.6094 242.227 37.6094H237C236.594 37.6094 236.25 37.4766 235.969 37.2109C235.703 36.9297 235.57 36.5859 235.57 36.1797V34.6797C232.883 36.9453 230.016 38.0781 226.969 38.0781C223.938 38.0781 221.469 37.1562 219.562 35.3125C217.656 33.4531 216.703 30.6172 216.703 26.8047Z" fill="#08496D"/>
<path d="M267.234 17.875L263.625 17.7344C261.516 17.7344 259.5 18.8906 257.578 21.2031V36.1797C257.578 36.6016 257.438 36.9453 257.156 37.2109C256.891 37.4766 256.555 37.6094 256.148 37.6094H250.898C250.477 37.6094 250.133 37.4766 249.867 37.2109C249.602 36.9453 249.469 36.6016 249.469 36.1797V13.375C249.469 12.9531 249.602 12.6094 249.867 12.3438C250.148 12.0625 250.492 11.9219 250.898 11.9219H256.148C256.57 11.9219 256.914 12.0625 257.18 12.3438C257.445 12.6094 257.578 12.9531 257.578 13.375V14.8516C259.172 13.6953 260.703 12.8438 262.172 12.2969C263.656 11.7344 265.594 11.4531 267.984 11.4531C268.406 11.4531 268.75 11.5938 269.016 11.875C269.297 12.1406 269.438 12.4766 269.438 12.8828V16.4453C269.438 16.8672 269.297 17.2109 269.016 17.4766C268.75 17.7422 268.406 17.875 267.984 17.875H267.234Z" fill="#08496D"/>
<path d="M272.812 36.1797V5.45312C272.812 5.03125 272.945 4.6875 273.211 4.42188C273.492 4.14062 273.836 4 274.242 4H279.492C279.898 4 280.234 4.14062 280.5 4.42188C280.781 4.6875 280.922 5.03125 280.922 5.45312V14.8516C283.609 12.5859 286.469 11.4531 289.5 11.4531C292.547 11.4531 295.023 12.3828 296.93 14.2422C298.836 16.0859 299.789 18.9141 299.789 22.7266V36.1797C299.789 36.5859 299.648 36.9297 299.367 37.2109C299.102 37.4766 298.758 37.6094 298.336 37.6094H293.109C292.703 37.6094 292.359 37.4766 292.078 37.2109C291.812 36.9297 291.68 36.5859 291.68 36.1797V22.7266C291.68 18.9922 290.188 17.125 287.203 17.125C285.25 17.125 283.156 18.2422 280.922 20.4766V36.1797C280.922 36.5859 280.781 36.9297 280.5 37.2109C280.234 37.4766 279.898 37.6094 279.492 37.6094H274.242C273.836 37.6094 273.492 37.4766 273.211 37.2109C272.945 36.9297 272.812 36.5859 272.812 36.1797Z" fill="#08496D"/>
<path d="M307.219 35.9219C305.156 34.4844 304.125 32.4531 304.125 29.8281C304.125 27.2031 305.156 25.1875 307.219 23.7812C309.297 22.375 311.969 21.6719 315.234 21.6719H322.992C322.992 19.8438 322.609 18.5703 321.844 17.8516C321.078 17.1328 319.734 16.7734 317.812 16.7734C315.906 16.7734 314.562 17.25 313.781 18.2031C313.016 19.1406 312.07 19.6094 310.945 19.6094H307.453C307.031 19.6094 306.68 19.4766 306.398 19.2109C306.133 18.9297 306 18.5859 306 18.1797C306 13.6953 310.258 11.4531 318.773 11.4531C322.492 11.4531 325.477 12.2891 327.727 13.9609C329.977 15.6172 331.102 18.1875 331.102 21.6719V36.1797C331.102 36.6016 330.969 36.9453 330.703 37.2109C330.438 37.4766 330.094 37.6094 329.672 37.6094H325.148C324.727 37.6094 324.383 37.4766 324.117 37.2109C323.852 36.9297 323.719 36.5859 323.719 36.1797V35.4531C321.25 37.2188 318.398 38.0938 315.164 38.0781C311.945 38.0781 309.297 37.3594 307.219 35.9219ZM315.797 26.9922C314.703 26.9922 313.836 27.2578 313.195 27.7891C312.57 28.3203 312.258 29.0078 312.258 29.8516C312.258 30.6953 312.586 31.3906 313.242 31.9375C313.898 32.4844 314.828 32.7578 316.031 32.7578C318.438 32.7578 320.758 32.0547 322.992 30.6484V26.9922H315.797Z" fill="#08496D"/>
<path d="M336.891 36.1797V13.375C336.891 12.9531 337.023 12.6094 337.289 12.3438C337.57 12.0625 337.914 11.9219 338.32 11.9219H343.57C343.977 11.9219 344.312 12.0625 344.578 12.3438C344.859 12.6094 345 12.9531 345 13.375V14.8516C347.688 12.5859 350.547 11.4531 353.578 11.4531C356.625 11.4531 359.102 12.3828 361.008 14.2422C362.914 16.0859 363.867 18.9141 363.867 22.7266V36.1797C363.867 36.5859 363.727 36.9297 363.445 37.2109C363.18 37.4766 362.836 37.6094 362.414 37.6094H357.188C356.781 37.6094 356.438 37.4766 356.156 37.2109C355.891 36.9297 355.758 36.5859 355.758 36.1797V22.7266C355.758 18.9922 354.266 17.125 351.281 17.125C349.328 17.125 347.234 18.2422 345 20.4766V36.1797C345 36.5859 344.859 36.9297 344.578 37.2109C344.312 37.4766 343.977 37.6094 343.57 37.6094H338.32C337.914 37.6094 337.57 37.4766 337.289 37.2109C337.023 36.9297 336.891 36.5859 336.891 36.1797Z" fill="#08496D"/>
<path d="M379.688 38.0781C376.422 38.0781 373.688 36.9297 371.484 34.6328C369.297 32.3359 368.203 29.0469 368.203 24.7656C368.203 20.4688 369.336 17.1797 371.602 14.8984C373.883 12.6016 376.945 11.4531 380.789 11.4531C382.773 11.4531 385.031 11.8516 387.562 12.6484V5.45312C387.562 5.03125 387.695 4.6875 387.961 4.42188C388.242 4.14062 388.586 4 388.992 4H394.219C394.641 4 394.984 4.14062 395.25 4.42188C395.531 4.6875 395.672 5.03125 395.672 5.45312V36.1797C395.672 36.5859 395.531 36.9297 395.25 37.2109C394.984 37.4766 394.641 37.6094 394.219 37.6094H389.719C389.297 37.6094 388.953 37.4766 388.688 37.2109C388.422 36.9297 388.289 36.5859 388.289 36.1797V35.4531C385.82 37.2031 382.953 38.0781 379.688 38.0781ZM382.477 17.125C380.32 17.125 378.797 17.7344 377.906 18.9531C377.016 20.1562 376.57 22.0938 376.57 24.7656C376.57 27.4375 376.992 29.3828 377.836 30.6016C378.68 31.8203 379.945 32.4297 381.633 32.4297C383.336 32.4297 385.312 31.7266 387.562 30.3203V18.0625C385.547 17.4375 383.852 17.125 382.477 17.125Z" fill="#08496D"/>
<path d="M399.984 19.0234C399.984 13.9766 404.055 11.4531 412.195 11.4531C420.758 11.4531 425.039 13.6953 425.039 18.1797C425.039 18.5859 424.906 18.9297 424.641 19.2109C424.375 19.4766 424.031 19.6094 423.609 19.6094H420.117C418.992 19.6094 418.047 19.1406 417.281 18.2031C416.516 17.25 415.008 16.7734 412.758 16.7734C409.664 16.7734 408.117 17.5234 408.117 19.0234C408.117 19.7266 408.719 20.3125 409.922 20.7812C411.141 21.25 412.617 21.6641 414.352 22.0234C416.102 22.3672 417.844 22.8125 419.578 23.3594C421.312 23.9062 422.781 24.7812 423.984 25.9844C425.203 27.1719 425.812 28.6797 425.812 30.5078C425.812 35.5547 421.516 38.0781 412.922 38.0781C404.328 38.0781 400.031 35.8438 400.031 31.375C400.031 30.9531 400.164 30.6094 400.43 30.3438C400.711 30.0625 401.062 29.9219 401.484 29.9219H404.977C406.102 29.9219 407.047 30.3984 407.812 31.3516C408.578 32.2891 410.086 32.7578 412.336 32.7578C415.914 32.7578 417.703 32.0078 417.703 30.5078C417.703 29.8047 417.094 29.2188 415.875 28.75C414.672 28.2812 413.195 27.8672 411.445 27.5078C409.695 27.1328 407.953 26.6797 406.219 26.1484C404.5 25.6016 403.031 24.7266 401.812 23.5234C400.594 22.3203 399.984 20.8203 399.984 19.0234Z" fill="#08496D"/>
<path d="M152.062 35.3594V6.17969C152.062 5.57031 152.281 5.05469 152.719 4.63281C153.156 4.21094 153.68 4 154.289 4H181.312C181.922 4 182.438 4.21875 182.859 4.65625C183.297 5.09375 183.516 5.61719 183.516 6.22656V8.42969C183.516 9.03906 183.297 9.5625 182.859 10C182.438 10.4219 181.922 10.6328 181.312 10.6328H160.898V18.8828H177.516C178.125 18.8828 178.641 19.1016 179.062 19.5391C179.5 19.9766 179.719 20.4922 179.719 21.0859V23.3125C179.719 23.9219 179.5 24.4453 179.062 24.8828C178.641 25.3047 178.125 25.5156 177.516 25.5156H160.898V35.3594C160.898 36 160.68 36.5391 160.242 36.9766C159.82 37.3984 159.305 37.6094 158.695 37.6094H154.289C153.68 37.6094 153.156 37.3984 152.719 36.9766C152.281 36.5391 152.062 36 152.062 35.3594Z" stroke="white" stroke-width="8" mask="url(#path-19-outside-1_9:54)"/>
<path d="M187.688 34.7031C185.25 32.4531 184.031 29.1406 184.031 24.7656C184.031 20.375 185.25 17.0625 187.688 14.8281C190.125 12.5781 193.625 11.4531 198.188 11.4531C202.766 11.4531 206.273 12.5781 208.711 14.8281C211.148 17.0625 212.367 20.375 212.367 24.7656C212.367 29.1406 211.148 32.4531 208.711 34.7031C206.273 36.9531 202.766 38.0781 198.188 38.0781C193.625 38.0781 190.125 36.9531 187.688 34.7031ZM193.617 18.6719C192.648 19.9375 192.164 21.9609 192.164 24.7422C192.164 27.5234 192.648 29.5547 193.617 30.8359C194.586 32.1172 196.109 32.7578 198.188 32.7578C200.281 32.7578 201.812 32.1172 202.781 30.8359C203.766 29.5547 204.258 27.5234 204.258 24.7422C204.258 21.9609 203.766 19.9375 202.781 18.6719C201.812 17.4062 200.281 16.7734 198.188 16.7734C196.109 16.7734 194.586 17.4062 193.617 18.6719Z" stroke="white" stroke-width="8" mask="url(#path-19-outside-1_9:54)"/>
<path d="M216.703 26.8047V13.375C216.703 12.9531 216.836 12.6094 217.102 12.3438C217.383 12.0625 217.727 11.9219 218.133 11.9219H223.383C223.789 11.9219 224.125 12.0625 224.391 12.3438C224.672 12.6094 224.812 12.9531 224.812 13.375V26.8047C224.812 30.5547 226.297 32.4297 229.266 32.4297C231.219 32.4297 233.32 31.3047 235.57 29.0547V13.375C235.57 12.9531 235.703 12.6094 235.969 12.3438C236.25 12.0625 236.594 11.9219 237 11.9219H242.227C242.648 11.9219 242.992 12.0625 243.258 12.3438C243.539 12.6094 243.68 12.9531 243.68 13.375V36.1797C243.68 36.5859 243.539 36.9297 243.258 37.2109C242.992 37.4766 242.648 37.6094 242.227 37.6094H237C236.594 37.6094 236.25 37.4766 235.969 37.2109C235.703 36.9297 235.57 36.5859 235.57 36.1797V34.6797C232.883 36.9453 230.016 38.0781 226.969 38.0781C223.938 38.0781 221.469 37.1562 219.562 35.3125C217.656 33.4531 216.703 30.6172 216.703 26.8047Z" stroke="white" stroke-width="8" mask="url(#path-19-outside-1_9:54)"/>
<path d="M267.234 17.875L263.625 17.7344C261.516 17.7344 259.5 18.8906 257.578 21.2031V36.1797C257.578 36.6016 257.438 36.9453 257.156 37.2109C256.891 37.4766 256.555 37.6094 256.148 37.6094H250.898C250.477 37.6094 250.133 37.4766 249.867 37.2109C249.602 36.9453 249.469 36.6016 249.469 36.1797V13.375C249.469 12.9531 249.602 12.6094 249.867 12.3438C250.148 12.0625 250.492 11.9219 250.898 11.9219H256.148C256.57 11.9219 256.914 12.0625 257.18 12.3438C257.445 12.6094 257.578 12.9531 257.578 13.375V14.8516C259.172 13.6953 260.703 12.8438 262.172 12.2969C263.656 11.7344 265.594 11.4531 267.984 11.4531C268.406 11.4531 268.75 11.5938 269.016 11.875C269.297 12.1406 269.438 12.4766 269.438 12.8828V16.4453C269.438 16.8672 269.297 17.2109 269.016 17.4766C268.75 17.7422 268.406 17.875 267.984 17.875H267.234Z" stroke="white" stroke-width="8" mask="url(#path-19-outside-1_9:54)"/>
<path d="M272.812 36.1797V5.45312C272.812 5.03125 272.945 4.6875 273.211 4.42188C273.492 4.14062 273.836 4 274.242 4H279.492C279.898 4 280.234 4.14062 280.5 4.42188C280.781 4.6875 280.922 5.03125 280.922 5.45312V14.8516C283.609 12.5859 286.469 11.4531 289.5 11.4531C292.547 11.4531 295.023 12.3828 296.93 14.2422C298.836 16.0859 299.789 18.9141 299.789 22.7266V36.1797C299.789 36.5859 299.648 36.9297 299.367 37.2109C299.102 37.4766 298.758 37.6094 298.336 37.6094H293.109C292.703 37.6094 292.359 37.4766 292.078 37.2109C291.812 36.9297 291.68 36.5859 291.68 36.1797V22.7266C291.68 18.9922 290.188 17.125 287.203 17.125C285.25 17.125 283.156 18.2422 280.922 20.4766V36.1797C280.922 36.5859 280.781 36.9297 280.5 37.2109C280.234 37.4766 279.898 37.6094 279.492 37.6094H274.242C273.836 37.6094 273.492 37.4766 273.211 37.2109C272.945 36.9297 272.812 36.5859 272.812 36.1797Z" stroke="white" stroke-width="8" mask="url(#path-19-outside-1_9:54)"/>
<path d="M307.219 35.9219C305.156 34.4844 304.125 32.4531 304.125 29.8281C304.125 27.2031 305.156 25.1875 307.219 23.7812C309.297 22.375 311.969 21.6719 315.234 21.6719H322.992C322.992 19.8438 322.609 18.5703 321.844 17.8516C321.078 17.1328 319.734 16.7734 317.812 16.7734C315.906 16.7734 314.562 17.25 313.781 18.2031C313.016 19.1406 312.07 19.6094 310.945 19.6094H307.453C307.031 19.6094 306.68 19.4766 306.398 19.2109C306.133 18.9297 306 18.5859 306 18.1797C306 13.6953 310.258 11.4531 318.773 11.4531C322.492 11.4531 325.477 12.2891 327.727 13.9609C329.977 15.6172 331.102 18.1875 331.102 21.6719V36.1797C331.102 36.6016 330.969 36.9453 330.703 37.2109C330.438 37.4766 330.094 37.6094 329.672 37.6094H325.148C324.727 37.6094 324.383 37.4766 324.117 37.2109C323.852 36.9297 323.719 36.5859 323.719 36.1797V35.4531C321.25 37.2188 318.398 38.0938 315.164 38.0781C311.945 38.0781 309.297 37.3594 307.219 35.9219ZM315.797 26.9922C314.703 26.9922 313.836 27.2578 313.195 27.7891C312.57 28.3203 312.258 29.0078 312.258 29.8516C312.258 30.6953 312.586 31.3906 313.242 31.9375C313.898 32.4844 314.828 32.7578 316.031 32.7578C318.438 32.7578 320.758 32.0547 322.992 30.6484V26.9922H315.797Z" stroke="white" stroke-width="8" mask="url(#path-19-outside-1_9:54)"/>
<path d="M336.891 36.1797V13.375C336.891 12.9531 337.023 12.6094 337.289 12.3438C337.57 12.0625 337.914 11.9219 338.32 11.9219H343.57C343.977 11.9219 344.312 12.0625 344.578 12.3438C344.859 12.6094 345 12.9531 345 13.375V14.8516C347.688 12.5859 350.547 11.4531 353.578 11.4531C356.625 11.4531 359.102 12.3828 361.008 14.2422C362.914 16.0859 363.867 18.9141 363.867 22.7266V36.1797C363.867 36.5859 363.727 36.9297 363.445 37.2109C363.18 37.4766 362.836 37.6094 362.414 37.6094H357.188C356.781 37.6094 356.438 37.4766 356.156 37.2109C355.891 36.9297 355.758 36.5859 355.758 36.1797V22.7266C355.758 18.9922 354.266 17.125 351.281 17.125C349.328 17.125 347.234 18.2422 345 20.4766V36.1797C345 36.5859 344.859 36.9297 344.578 37.2109C344.312 37.4766 343.977 37.6094 343.57 37.6094H338.32C337.914 37.6094 337.57 37.4766 337.289 37.2109C337.023 36.9297 336.891 36.5859 336.891 36.1797Z" stroke="white" stroke-width="8" mask="url(#path-19-outside-1_9:54)"/>
<path d="M379.688 38.0781C376.422 38.0781 373.688 36.9297 371.484 34.6328C369.297 32.3359 368.203 29.0469 368.203 24.7656C368.203 20.4688 369.336 17.1797 371.602 14.8984C373.883 12.6016 376.945 11.4531 380.789 11.4531C382.773 11.4531 385.031 11.8516 387.562 12.6484V5.45312C387.562 5.03125 387.695 4.6875 387.961 4.42188C388.242 4.14062 388.586 4 388.992 4H394.219C394.641 4 394.984 4.14062 395.25 4.42188C395.531 4.6875 395.672 5.03125 395.672 5.45312V36.1797C395.672 36.5859 395.531 36.9297 395.25 37.2109C394.984 37.4766 394.641 37.6094 394.219 37.6094H389.719C389.297 37.6094 388.953 37.4766 388.688 37.2109C388.422 36.9297 388.289 36.5859 388.289 36.1797V35.4531C385.82 37.2031 382.953 38.0781 379.688 38.0781ZM382.477 17.125C380.32 17.125 378.797 17.7344 377.906 18.9531C377.016 20.1562 376.57 22.0938 376.57 24.7656C376.57 27.4375 376.992 29.3828 377.836 30.6016C378.68 31.8203 379.945 32.4297 381.633 32.4297C383.336 32.4297 385.312 31.7266 387.562 30.3203V18.0625C385.547 17.4375 383.852 17.125 382.477 17.125Z" stroke="white" stroke-width="8" mask="url(#path-19-outside-1_9:54)"/>
<path d="M399.984 19.0234C399.984 13.9766 404.055 11.4531 412.195 11.4531C420.758 11.4531 425.039 13.6953 425.039 18.1797C425.039 18.5859 424.906 18.9297 424.641 19.2109C424.375 19.4766 424.031 19.6094 423.609 19.6094H420.117C418.992 19.6094 418.047 19.1406 417.281 18.2031C416.516 17.25 415.008 16.7734 412.758 16.7734C409.664 16.7734 408.117 17.5234 408.117 19.0234C408.117 19.7266 408.719 20.3125 409.922 20.7812C411.141 21.25 412.617 21.6641 414.352 22.0234C416.102 22.3672 417.844 22.8125 419.578 23.3594C421.312 23.9062 422.781 24.7812 423.984 25.9844C425.203 27.1719 425.812 28.6797 425.812 30.5078C425.812 35.5547 421.516 38.0781 412.922 38.0781C404.328 38.0781 400.031 35.8438 400.031 31.375C400.031 30.9531 400.164 30.6094 400.43 30.3438C400.711 30.0625 401.062 29.9219 401.484 29.9219H404.977C406.102 29.9219 407.047 30.3984 407.812 31.3516C408.578 32.2891 410.086 32.7578 412.336 32.7578C415.914 32.7578 417.703 32.0078 417.703 30.5078C417.703 29.8047 417.094 29.2188 415.875 28.75C414.672 28.2812 413.195 27.8672 411.445 27.5078C409.695 27.1328 407.953 26.6797 406.219 26.1484C404.5 25.6016 403.031 24.7266 401.812 23.5234C400.594 22.3203 399.984 20.8203 399.984 19.0234Z" stroke="white" stroke-width="8" mask="url(#path-19-outside-1_9:54)"/>
<mask id="path-20-outside-2_9:54" maskUnits="userSpaceOnUse" x="189.505" y="55.6699" width="198" height="16" fill="black">
<rect fill="white" x="189.505" y="55.6699" width="198" height="16"/>
<path d="M191.505 59.0986V58.4561C191.505 58.2692 191.566 58.1143 191.689 57.9912C191.812 57.8682 191.967 57.8066 192.154 57.8066H200.829C201.016 57.8066 201.171 57.8682 201.294 57.9912C201.417 58.1143 201.479 58.2692 201.479 58.4561V59.0986C201.479 59.2855 201.417 59.4404 201.294 59.5635C201.171 59.682 201.016 59.7412 200.829 59.7412H197.78V66.9805C197.78 67.1582 197.716 67.3086 197.589 67.4316C197.466 67.5501 197.315 67.6094 197.138 67.6094H195.846C195.668 67.6094 195.515 67.5501 195.388 67.4316C195.265 67.3086 195.203 67.1582 195.203 66.9805V59.7412H192.154C191.967 59.7412 191.812 59.682 191.689 59.5635C191.566 59.4404 191.505 59.2855 191.505 59.0986Z"/>
<path d="M202.463 67.1924V58.2305C202.463 58.1074 202.502 58.0072 202.579 57.9297C202.661 57.8477 202.761 57.8066 202.88 57.8066H204.411C204.53 57.8066 204.628 57.8477 204.705 57.9297C204.787 58.0072 204.828 58.1074 204.828 58.2305V60.9717C205.612 60.3109 206.446 59.9805 207.33 59.9805C208.219 59.9805 208.941 60.2516 209.497 60.7939C210.053 61.3317 210.331 62.1566 210.331 63.2686V67.1924C210.331 67.3109 210.29 67.4111 210.208 67.4932C210.131 67.5706 210.03 67.6094 209.907 67.6094H208.383C208.264 67.6094 208.164 67.5706 208.082 67.4932C208.005 67.4111 207.966 67.3109 207.966 67.1924V63.2686C207.966 62.1794 207.531 61.6348 206.66 61.6348C206.09 61.6348 205.48 61.9606 204.828 62.6123V67.1924C204.828 67.3109 204.787 67.4111 204.705 67.4932C204.628 67.5706 204.53 67.6094 204.411 67.6094H202.88C202.761 67.6094 202.661 67.5706 202.579 67.4932C202.502 67.4111 202.463 67.3109 202.463 67.1924Z"/>
<path d="M212.648 66.748C211.947 66.0827 211.596 65.1257 211.596 63.877C211.596 62.6237 211.949 61.6621 212.655 60.9922C213.362 60.3177 214.341 59.9805 215.595 59.9805C216.848 59.9805 217.826 60.3086 218.527 60.9648C219.229 61.6165 219.58 62.5531 219.58 63.7744V64.1641C219.58 64.2871 219.539 64.3896 219.457 64.4717C219.38 64.5492 219.279 64.5879 219.156 64.5879H214.009C214.054 65.1484 214.214 65.5563 214.487 65.8115C214.765 66.0667 215.207 66.1943 215.813 66.1943C216.42 66.1943 216.834 66.0576 217.058 65.7842C217.281 65.5107 217.557 65.3717 217.885 65.3672H218.903C219.026 65.3672 219.127 65.4082 219.204 65.4902C219.286 65.5677 219.327 65.668 219.327 65.791C219.327 67.099 218.081 67.7507 215.588 67.7461C214.33 67.7461 213.35 67.4134 212.648 66.748ZM213.995 63.1455H217.174C217.128 62.07 216.6 61.5322 215.588 61.5322C214.581 61.5322 214.05 62.07 213.995 63.1455Z"/>
<path d="M231.235 59.4062L230.292 59.29C229.385 59.29 228.795 59.4131 228.521 59.6592C228.248 59.9007 228.111 60.4043 228.111 61.1699V61.2793H230.586C230.709 61.2793 230.809 61.3203 230.887 61.4023C230.969 61.4798 231.01 61.5801 231.01 61.7031V62.5166C231.01 62.6396 230.969 62.7399 230.887 62.8174C230.809 62.8949 230.709 62.9336 230.586 62.9336H228.111V67.1924C228.111 67.3154 228.07 67.4157 227.988 67.4932C227.911 67.5706 227.813 67.6094 227.694 67.6094H226.163C226.04 67.6094 225.94 67.5706 225.862 67.4932C225.785 67.4157 225.746 67.3154 225.746 67.1924V61.1699C225.746 59.8984 226.035 58.9984 226.614 58.4697C227.193 57.9365 228.209 57.6699 229.663 57.6699C230.41 57.6699 230.932 57.6973 231.229 57.752C231.525 57.8066 231.712 57.875 231.789 57.957C231.867 58.0345 231.905 58.1257 231.905 58.2305V58.9824C231.905 59.1055 231.864 59.208 231.782 59.29C231.705 59.3675 231.607 59.4062 231.488 59.4062H231.235Z"/>
<path d="M232.746 67.1172C232.145 66.6979 231.844 66.1055 231.844 65.3398C231.844 64.5742 232.145 63.9863 232.746 63.5762C233.352 63.166 234.132 62.9609 235.084 62.9609H237.347C237.347 62.4277 237.235 62.0563 237.012 61.8467C236.788 61.637 236.396 61.5322 235.836 61.5322C235.28 61.5322 234.888 61.6712 234.66 61.9492C234.437 62.2227 234.161 62.3594 233.833 62.3594H232.814C232.691 62.3594 232.589 62.3206 232.507 62.2432C232.429 62.1611 232.391 62.0609 232.391 61.9424C232.391 60.6344 233.632 59.9805 236.116 59.9805C237.201 59.9805 238.071 60.2243 238.728 60.7119C239.384 61.195 239.712 61.9447 239.712 62.9609V67.1924C239.712 67.3154 239.673 67.4157 239.596 67.4932C239.518 67.5706 239.418 67.6094 239.295 67.6094H237.976C237.853 67.6094 237.752 67.5706 237.675 67.4932C237.597 67.4111 237.559 67.3109 237.559 67.1924V66.9805C236.839 67.4954 236.007 67.7507 235.063 67.7461C234.125 67.7461 233.352 67.5365 232.746 67.1172ZM235.248 64.5127C234.929 64.5127 234.676 64.5902 234.489 64.7451C234.307 64.9001 234.216 65.1006 234.216 65.3467C234.216 65.5928 234.312 65.7956 234.503 65.9551C234.694 66.1146 234.965 66.1943 235.316 66.1943C236.018 66.1943 236.695 65.9893 237.347 65.5791V64.5127H235.248Z"/>
<path d="M240.977 62.1885C240.977 60.7165 242.164 59.9805 244.538 59.9805C247.035 59.9805 248.284 60.6344 248.284 61.9424C248.284 62.0609 248.245 62.1611 248.168 62.2432C248.09 62.3206 247.99 62.3594 247.867 62.3594H246.849C246.521 62.3594 246.245 62.2227 246.021 61.9492C245.798 61.6712 245.358 61.5322 244.702 61.5322C243.8 61.5322 243.349 61.751 243.349 62.1885C243.349 62.3936 243.524 62.5645 243.875 62.7012C244.23 62.8379 244.661 62.9587 245.167 63.0635C245.677 63.1637 246.186 63.2936 246.691 63.4531C247.197 63.6126 247.626 63.8678 247.977 64.2188C248.332 64.5651 248.51 65.0049 248.51 65.5381C248.51 67.0101 247.257 67.7461 244.75 67.7461C242.243 67.7461 240.99 67.0944 240.99 65.791C240.99 65.668 241.029 65.5677 241.106 65.4902C241.188 65.4082 241.291 65.3672 241.414 65.3672H242.433C242.761 65.3672 243.036 65.5062 243.26 65.7842C243.483 66.0576 243.923 66.1943 244.579 66.1943C245.623 66.1943 246.145 65.9756 246.145 65.5381C246.145 65.333 245.967 65.1621 245.611 65.0254C245.26 64.8887 244.83 64.7679 244.319 64.6631C243.809 64.5537 243.301 64.4215 242.795 64.2666C242.294 64.1071 241.865 63.8519 241.51 63.501C241.154 63.1501 240.977 62.7126 240.977 62.1885Z"/>
<path d="M253.35 66.126L254.286 66.0439H254.539C254.662 66.0439 254.762 66.0827 254.84 66.1602C254.922 66.2376 254.963 66.3379 254.963 66.4609V67.1924C254.963 67.2926 254.922 67.3838 254.84 67.4658C254.762 67.5433 254.662 67.5911 254.539 67.6094C254.074 67.7005 253.468 67.7461 252.721 67.7461C250.761 67.7461 249.781 66.7207 249.781 64.6699V58.2305C249.781 58.1074 249.82 58.0072 249.897 57.9297C249.979 57.8477 250.08 57.8066 250.198 57.8066H251.729C251.848 57.8066 251.946 57.8477 252.023 57.9297C252.105 58.0072 252.146 58.1074 252.146 58.2305V60.5137H254.054C254.172 60.5137 254.27 60.5524 254.348 60.6299C254.43 60.7074 254.471 60.8076 254.471 60.9307V61.7441C254.471 61.8672 254.43 61.9674 254.348 62.0449C254.27 62.1224 254.172 62.1611 254.054 62.1611H252.146V64.6699C252.146 65.1348 252.256 65.4948 252.475 65.75C252.693 66.0007 252.985 66.126 253.35 66.126Z"/>
<path d="M264.561 66.126L265.497 66.0439H265.75C265.873 66.0439 265.973 66.0827 266.051 66.1602C266.133 66.2376 266.174 66.3379 266.174 66.4609V67.1924C266.174 67.2926 266.133 67.3838 266.051 67.4658C265.973 67.5433 265.873 67.5911 265.75 67.6094C265.285 67.7005 264.679 67.7461 263.932 67.7461C261.972 67.7461 260.992 66.7207 260.992 64.6699V58.2305C260.992 58.1074 261.031 58.0072 261.108 57.9297C261.19 57.8477 261.291 57.8066 261.409 57.8066H262.94C263.059 57.8066 263.157 57.8477 263.234 57.9297C263.316 58.0072 263.357 58.1074 263.357 58.2305V60.5137H265.265C265.383 60.5137 265.481 60.5524 265.559 60.6299C265.641 60.7074 265.682 60.8076 265.682 60.9307V61.7441C265.682 61.8672 265.641 61.9674 265.559 62.0449C265.481 62.1224 265.383 62.1611 265.265 62.1611H263.357V64.6699C263.357 65.1348 263.467 65.4948 263.686 65.75C263.904 66.0007 264.196 66.126 264.561 66.126Z"/>
<path d="M266.516 60.7188C266.479 60.6003 266.459 60.5023 266.454 60.4248C266.454 60.2243 266.568 60.1217 266.796 60.1172H268.067C268.282 60.1172 268.473 60.1719 268.642 60.2812C268.81 60.3861 268.926 60.5319 268.99 60.7188L270.111 64.4033L271.219 60.7188C271.342 60.3177 271.602 60.1172 271.998 60.1172H273.208C273.609 60.1172 273.869 60.3177 273.987 60.7188L275.095 64.4033L276.216 60.7188C276.28 60.5319 276.396 60.3861 276.564 60.2812C276.733 60.1719 276.924 60.1172 277.139 60.1172H278.41C278.633 60.1172 278.747 60.2197 278.752 60.4248C278.752 60.5068 278.731 60.6048 278.69 60.7188L276.619 67.0078C276.555 67.1947 276.441 67.3428 276.277 67.4521C276.113 67.557 275.938 67.6094 275.751 67.6094H274.787C274.6 67.6094 274.423 67.5547 274.254 67.4453C274.085 67.3314 273.974 67.1855 273.919 67.0078L272.606 62.9336L271.287 67.0078C271.232 67.1855 271.121 67.3314 270.952 67.4453C270.784 67.5547 270.606 67.6094 270.419 67.6094H269.455C269.268 67.6094 269.093 67.557 268.929 67.4521C268.765 67.3428 268.651 67.1947 268.587 67.0078L266.516 60.7188Z"/>
<path d="M280.311 66.7617C279.6 66.1055 279.244 65.1393 279.244 63.8633C279.244 62.5827 279.6 61.6165 280.311 60.9648C281.021 60.3086 282.042 59.9805 283.373 59.9805C284.708 59.9805 285.731 60.3086 286.442 60.9648C287.153 61.6165 287.509 62.5827 287.509 63.8633C287.509 65.1393 287.153 66.1055 286.442 66.7617C285.731 67.418 284.708 67.7461 283.373 67.7461C282.042 67.7461 281.021 67.418 280.311 66.7617ZM282.04 62.0859C281.757 62.4551 281.616 63.0452 281.616 63.8564C281.616 64.6676 281.757 65.2601 282.04 65.6338C282.323 66.0075 282.767 66.1943 283.373 66.1943C283.984 66.1943 284.43 66.0075 284.713 65.6338C285 65.2601 285.144 64.6676 285.144 63.8564C285.144 63.0452 285 62.4551 284.713 62.0859C284.43 61.7168 283.984 61.5322 283.373 61.5322C282.767 61.5322 282.323 61.7168 282.04 62.0859Z"/>
<path d="M293.682 69.4961V60.541C293.682 60.418 293.72 60.3177 293.798 60.2402C293.88 60.1582 293.98 60.1172 294.099 60.1172H295.418C295.536 60.1172 295.634 60.1582 295.712 60.2402C295.794 60.3177 295.835 60.418 295.835 60.541V60.7461C296.555 60.2357 297.391 59.9805 298.344 59.9805C299.296 59.9805 300.091 60.3177 300.729 60.9922C301.368 61.6621 301.687 62.6237 301.687 63.877C301.687 65.1257 301.356 66.0827 300.695 66.748C300.035 67.4134 299.144 67.7461 298.022 67.7461C297.444 67.7461 296.785 67.6299 296.047 67.3975V69.4961C296.047 69.6191 296.006 69.7194 295.924 69.7969C295.846 69.8789 295.748 69.9199 295.63 69.9199H294.099C293.98 69.9199 293.88 69.8789 293.798 69.7969C293.72 69.7194 293.682 69.6191 293.682 69.4961ZM296.047 65.8184C296.635 66.0052 297.129 66.0986 297.53 66.0986C298.155 66.0986 298.597 65.9209 298.856 65.5654C299.121 65.21 299.253 64.6426 299.253 63.8633C299.253 63.084 299.128 62.5189 298.877 62.168C298.631 61.8125 298.259 61.6348 297.763 61.6348C297.271 61.6348 296.699 61.8398 296.047 62.25V65.8184Z"/>
<path d="M302.951 67.1924V58.2305C302.951 58.1074 302.99 58.0072 303.067 57.9297C303.149 57.8477 303.25 57.8066 303.368 57.8066H304.899C305.018 57.8066 305.116 57.8477 305.193 57.9297C305.275 58.0072 305.316 58.1074 305.316 58.2305V67.1924C305.316 67.3109 305.275 67.4111 305.193 67.4932C305.116 67.5706 305.018 67.6094 304.899 67.6094H303.368C303.25 67.6094 303.149 67.5706 303.067 67.4932C302.99 67.4111 302.951 67.3109 302.951 67.1924Z"/>
<path d="M307.477 67.1172C306.875 66.6979 306.574 66.1055 306.574 65.3398C306.574 64.5742 306.875 63.9863 307.477 63.5762C308.083 63.166 308.862 62.9609 309.814 62.9609H312.077C312.077 62.4277 311.965 62.0563 311.742 61.8467C311.519 61.637 311.127 61.5322 310.566 61.5322C310.01 61.5322 309.618 61.6712 309.391 61.9492C309.167 62.2227 308.892 62.3594 308.563 62.3594H307.545C307.422 62.3594 307.319 62.3206 307.237 62.2432C307.16 62.1611 307.121 62.0609 307.121 61.9424C307.121 60.6344 308.363 59.9805 310.847 59.9805C311.931 59.9805 312.802 60.2243 313.458 60.7119C314.114 61.195 314.442 61.9447 314.442 62.9609V67.1924C314.442 67.3154 314.404 67.4157 314.326 67.4932C314.249 67.5706 314.148 67.6094 314.025 67.6094H312.706C312.583 67.6094 312.483 67.5706 312.405 67.4932C312.328 67.4111 312.289 67.3109 312.289 67.1924V66.9805C311.569 67.4954 310.737 67.7507 309.794 67.7461C308.855 67.7461 308.083 67.5365 307.477 67.1172ZM309.979 64.5127C309.66 64.5127 309.407 64.5902 309.22 64.7451C309.037 64.9001 308.946 65.1006 308.946 65.3467C308.946 65.5928 309.042 65.7956 309.233 65.9551C309.425 66.1146 309.696 66.1943 310.047 66.1943C310.749 66.1943 311.425 65.9893 312.077 65.5791V64.5127H309.979Z"/>
<path d="M317.45 68.3203L318.346 68.4365C318.988 68.4365 319.437 67.9648 319.692 67.0215C318.918 67.0215 318.271 66.7891 317.751 66.3242C317.231 65.8548 316.785 65.0231 316.411 63.8291L315.393 60.5273C315.379 60.4909 315.372 60.4499 315.372 60.4043C315.372 60.3542 315.399 60.2949 315.454 60.2266C315.513 60.1582 315.6 60.1217 315.714 60.1172H317.143C317.275 60.1172 317.4 60.1628 317.519 60.2539C317.642 60.3405 317.721 60.4499 317.758 60.582L318.653 63.4805C318.877 64.1914 319.102 64.6836 319.33 64.957C319.562 65.2305 319.836 65.3672 320.15 65.3672L321.511 60.582C321.547 60.4499 321.618 60.3405 321.723 60.2539C321.832 60.1628 321.953 60.1172 322.085 60.1172H323.527C323.641 60.1172 323.726 60.1536 323.78 60.2266C323.835 60.2995 323.862 60.361 323.862 60.4111C323.862 60.4567 323.858 60.4954 323.849 60.5273L322.058 66.9121C321.739 68.0423 321.342 68.849 320.868 69.332C320.399 69.8151 319.793 70.0566 319.05 70.0566C318.307 70.0566 317.781 70.0293 317.471 69.9746C317.165 69.9199 316.974 69.8516 316.896 69.7695C316.819 69.6921 316.78 69.6009 316.78 69.4961V68.7441C316.78 68.6211 316.819 68.5186 316.896 68.4365C316.974 68.359 317.074 68.3203 317.197 68.3203H317.45Z"/>
<path d="M325.4 66.748C324.699 66.0827 324.348 65.1257 324.348 63.877C324.348 62.6237 324.701 61.6621 325.407 60.9922C326.114 60.3177 327.093 59.9805 328.347 59.9805C329.6 59.9805 330.577 60.3086 331.279 60.9648C331.981 61.6165 332.332 62.5531 332.332 63.7744V64.1641C332.332 64.2871 332.291 64.3896 332.209 64.4717C332.132 64.5492 332.031 64.5879 331.908 64.5879H326.761C326.806 65.1484 326.966 65.5563 327.239 65.8115C327.517 66.0667 327.959 66.1943 328.565 66.1943C329.172 66.1943 329.586 66.0576 329.81 65.7842C330.033 65.5107 330.309 65.3717 330.637 65.3672H331.655C331.778 65.3672 331.879 65.4082 331.956 65.4902C332.038 65.5677 332.079 65.668 332.079 65.791C332.079 67.099 330.833 67.7507 328.34 67.7461C327.082 67.7461 326.102 67.4134 325.4 66.748ZM326.747 63.1455H329.926C329.88 62.07 329.352 61.5322 328.34 61.5322C327.333 61.5322 326.802 62.07 326.747 63.1455Z"/>
<path d="M338.771 61.8535L337.719 61.8125C337.104 61.8125 336.516 62.1497 335.955 62.8242V67.1924C335.955 67.3154 335.914 67.4157 335.832 67.4932C335.755 67.5706 335.657 67.6094 335.538 67.6094H334.007C333.884 67.6094 333.784 67.5706 333.706 67.4932C333.629 67.4157 333.59 67.3154 333.59 67.1924V60.541C333.59 60.418 333.629 60.3177 333.706 60.2402C333.788 60.1582 333.888 60.1172 334.007 60.1172H335.538C335.661 60.1172 335.761 60.1582 335.839 60.2402C335.916 60.3177 335.955 60.418 335.955 60.541V60.9717C336.42 60.6344 336.867 60.3861 337.295 60.2266C337.728 60.0625 338.293 59.9805 338.99 59.9805C339.113 59.9805 339.214 60.0215 339.291 60.1035C339.373 60.181 339.414 60.279 339.414 60.3975V61.4365C339.414 61.5596 339.373 61.6598 339.291 61.7373C339.214 61.8148 339.113 61.8535 338.99 61.8535H338.771Z"/>
<path d="M345.307 69.4961V60.541C345.307 60.418 345.345 60.3177 345.423 60.2402C345.505 60.1582 345.605 60.1172 345.724 60.1172H347.043C347.161 60.1172 347.259 60.1582 347.337 60.2402C347.419 60.3177 347.46 60.418 347.46 60.541V60.7461C348.18 60.2357 349.016 59.9805 349.969 59.9805C350.921 59.9805 351.716 60.3177 352.354 60.9922C352.993 61.6621 353.312 62.6237 353.312 63.877C353.312 65.1257 352.981 66.0827 352.32 66.748C351.66 67.4134 350.769 67.7461 349.647 67.7461C349.069 67.7461 348.41 67.6299 347.672 67.3975V69.4961C347.672 69.6191 347.631 69.7194 347.549 69.7969C347.471 69.8789 347.373 69.9199 347.255 69.9199H345.724C345.605 69.9199 345.505 69.8789 345.423 69.7969C345.345 69.7194 345.307 69.6191 345.307 69.4961ZM347.672 65.8184C348.26 66.0052 348.754 66.0986 349.155 66.0986C349.78 66.0986 350.222 65.9209 350.481 65.5654C350.746 65.21 350.878 64.6426 350.878 63.8633C350.878 63.084 350.753 62.5189 350.502 62.168C350.256 61.8125 349.884 61.6348 349.388 61.6348C348.896 61.6348 348.324 61.8398 347.672 62.25V65.8184Z"/>
<path d="M354.576 58.6885V58.4561C354.576 58.2145 354.645 58.0231 354.781 57.8818C354.923 57.7406 355.116 57.6699 355.362 57.6699H356.21C356.451 57.6699 356.643 57.7406 356.784 57.8818C356.925 58.0186 356.996 58.21 356.996 58.4561V58.6885C356.996 58.93 356.925 59.1214 356.784 59.2627C356.647 59.404 356.456 59.4746 356.21 59.4746H355.362C355.121 59.4746 354.929 59.404 354.788 59.2627C354.647 59.1214 354.576 58.93 354.576 58.6885ZM354.604 67.1924V60.7051C354.604 60.582 354.642 60.4818 354.72 60.4043C354.802 60.3268 354.902 60.2881 355.021 60.2881H356.552C356.675 60.2881 356.775 60.3291 356.853 60.4111C356.93 60.4886 356.969 60.5866 356.969 60.7051V67.1924C356.969 67.3154 356.928 67.4157 356.846 67.4932C356.768 67.5706 356.67 67.6094 356.552 67.6094H355.021C354.897 67.6094 354.797 67.5706 354.72 67.4932C354.642 67.4157 354.604 67.3154 354.604 67.1924Z"/>
<path d="M359.156 67.1172C358.555 66.6979 358.254 66.1055 358.254 65.3398C358.254 64.5742 358.555 63.9863 359.156 63.5762C359.762 63.166 360.542 62.9609 361.494 62.9609H363.757C363.757 62.4277 363.645 62.0563 363.422 61.8467C363.199 61.637 362.807 61.5322 362.246 61.5322C361.69 61.5322 361.298 61.6712 361.07 61.9492C360.847 62.2227 360.571 62.3594 360.243 62.3594H359.225C359.102 62.3594 358.999 62.3206 358.917 62.2432C358.84 62.1611 358.801 62.0609 358.801 61.9424C358.801 60.6344 360.043 59.9805 362.526 59.9805C363.611 59.9805 364.481 60.2243 365.138 60.7119C365.794 61.195 366.122 61.9447 366.122 62.9609V67.1924C366.122 67.3154 366.083 67.4157 366.006 67.4932C365.928 67.5706 365.828 67.6094 365.705 67.6094H364.386C364.263 67.6094 364.162 67.5706 364.085 67.4932C364.007 67.4111 363.969 67.3109 363.969 67.1924V66.9805C363.249 67.4954 362.417 67.7507 361.474 67.7461C360.535 67.7461 359.762 67.5365 359.156 67.1172ZM361.658 64.5127C361.339 64.5127 361.086 64.5902 360.899 64.7451C360.717 64.9001 360.626 65.1006 360.626 65.3467C360.626 65.5928 360.722 65.7956 360.913 65.9551C361.104 66.1146 361.376 66.1943 361.727 66.1943C362.428 66.1943 363.105 65.9893 363.757 65.5791V64.5127H361.658Z"/>
<path d="M367.811 67.1924V60.541C367.811 60.418 367.849 60.3177 367.927 60.2402C368.009 60.1582 368.109 60.1172 368.228 60.1172H369.759C369.877 60.1172 369.975 60.1582 370.053 60.2402C370.135 60.3177 370.176 60.418 370.176 60.541V60.9717C370.96 60.3109 371.794 59.9805 372.678 59.9805C373.566 59.9805 374.289 60.2516 374.845 60.7939C375.401 61.3317 375.679 62.1566 375.679 63.2686V67.1924C375.679 67.3109 375.638 67.4111 375.556 67.4932C375.478 67.5706 375.378 67.6094 375.255 67.6094H373.73C373.612 67.6094 373.512 67.5706 373.43 67.4932C373.352 67.4111 373.313 67.3109 373.313 67.1924V63.2686C373.313 62.1794 372.878 61.6348 372.008 61.6348C371.438 61.6348 370.827 61.9606 370.176 62.6123V67.1924C370.176 67.3109 370.135 67.4111 370.053 67.4932C369.975 67.5706 369.877 67.6094 369.759 67.6094H368.228C368.109 67.6094 368.009 67.5706 367.927 67.4932C367.849 67.4111 367.811 67.3109 367.811 67.1924Z"/>
<path d="M378.01 66.7617C377.299 66.1055 376.943 65.1393 376.943 63.8633C376.943 62.5827 377.299 61.6165 378.01 60.9648C378.721 60.3086 379.742 59.9805 381.072 59.9805C382.408 59.9805 383.431 60.3086 384.142 60.9648C384.853 61.6165 385.208 62.5827 385.208 63.8633C385.208 65.1393 384.853 66.1055 384.142 66.7617C383.431 67.418 382.408 67.7461 381.072 67.7461C379.742 67.7461 378.721 67.418 378.01 66.7617ZM379.739 62.0859C379.457 62.4551 379.315 63.0452 379.315 63.8564C379.315 64.6676 379.457 65.2601 379.739 65.6338C380.022 66.0075 380.466 66.1943 381.072 66.1943C381.683 66.1943 382.13 66.0075 382.412 65.6338C382.699 65.2601 382.843 64.6676 382.843 63.8564C382.843 63.0452 382.699 62.4551 382.412 62.0859C382.13 61.7168 381.683 61.5322 381.072 61.5322C380.466 61.5322 380.022 61.7168 379.739 62.0859Z"/>
</mask>
<path d="M191.505 59.0986V58.4561C191.505 58.2692 191.566 58.1143 191.689 57.9912C191.812 57.8682 191.967 57.8066 192.154 57.8066H200.829C201.016 57.8066 201.171 57.8682 201.294 57.9912C201.417 58.1143 201.479 58.2692 201.479 58.4561V59.0986C201.479 59.2855 201.417 59.4404 201.294 59.5635C201.171 59.682 201.016 59.7412 200.829 59.7412H197.78V66.9805C197.78 67.1582 197.716 67.3086 197.589 67.4316C197.466 67.5501 197.315 67.6094 197.138 67.6094H195.846C195.668 67.6094 195.515 67.5501 195.388 67.4316C195.265 67.3086 195.203 67.1582 195.203 66.9805V59.7412H192.154C191.967 59.7412 191.812 59.682 191.689 59.5635C191.566 59.4404 191.505 59.2855 191.505 59.0986Z" fill="#08496D"/>
<path d="M202.463 67.1924V58.2305C202.463 58.1074 202.502 58.0072 202.579 57.9297C202.661 57.8477 202.761 57.8066 202.88 57.8066H204.411C204.53 57.8066 204.628 57.8477 204.705 57.9297C204.787 58.0072 204.828 58.1074 204.828 58.2305V60.9717C205.612 60.3109 206.446 59.9805 207.33 59.9805C208.219 59.9805 208.941 60.2516 209.497 60.7939C210.053 61.3317 210.331 62.1566 210.331 63.2686V67.1924C210.331 67.3109 210.29 67.4111 210.208 67.4932C210.131 67.5706 210.03 67.6094 209.907 67.6094H208.383C208.264 67.6094 208.164 67.5706 208.082 67.4932C208.005 67.4111 207.966 67.3109 207.966 67.1924V63.2686C207.966 62.1794 207.531 61.6348 206.66 61.6348C206.09 61.6348 205.48 61.9606 204.828 62.6123V67.1924C204.828 67.3109 204.787 67.4111 204.705 67.4932C204.628 67.5706 204.53 67.6094 204.411 67.6094H202.88C202.761 67.6094 202.661 67.5706 202.579 67.4932C202.502 67.4111 202.463 67.3109 202.463 67.1924Z" fill="#08496D"/>
<path d="M212.648 66.748C211.947 66.0827 211.596 65.1257 211.596 63.877C211.596 62.6237 211.949 61.6621 212.655 60.9922C213.362 60.3177 214.341 59.9805 215.595 59.9805C216.848 59.9805 217.826 60.3086 218.527 60.9648C219.229 61.6165 219.58 62.5531 219.58 63.7744V64.1641C219.58 64.2871 219.539 64.3896 219.457 64.4717C219.38 64.5492 219.279 64.5879 219.156 64.5879H214.009C214.054 65.1484 214.214 65.5563 214.487 65.8115C214.765 66.0667 215.207 66.1943 215.813 66.1943C216.42 66.1943 216.834 66.0576 217.058 65.7842C217.281 65.5107 217.557 65.3717 217.885 65.3672H218.903C219.026 65.3672 219.127 65.4082 219.204 65.4902C219.286 65.5677 219.327 65.668 219.327 65.791C219.327 67.099 218.081 67.7507 215.588 67.7461C214.33 67.7461 213.35 67.4134 212.648 66.748ZM213.995 63.1455H217.174C217.128 62.07 216.6 61.5322 215.588 61.5322C214.581 61.5322 214.05 62.07 213.995 63.1455Z" fill="#08496D"/>
<path d="M231.235 59.4062L230.292 59.29C229.385 59.29 228.795 59.4131 228.521 59.6592C228.248 59.9007 228.111 60.4043 228.111 61.1699V61.2793H230.586C230.709 61.2793 230.809 61.3203 230.887 61.4023C230.969 61.4798 231.01 61.5801 231.01 61.7031V62.5166C231.01 62.6396 230.969 62.7399 230.887 62.8174C230.809 62.8949 230.709 62.9336 230.586 62.9336H228.111V67.1924C228.111 67.3154 228.07 67.4157 227.988 67.4932C227.911 67.5706 227.813 67.6094 227.694 67.6094H226.163C226.04 67.6094 225.94 67.5706 225.862 67.4932C225.785 67.4157 225.746 67.3154 225.746 67.1924V61.1699C225.746 59.8984 226.035 58.9984 226.614 58.4697C227.193 57.9365 228.209 57.6699 229.663 57.6699C230.41 57.6699 230.932 57.6973 231.229 57.752C231.525 57.8066 231.712 57.875 231.789 57.957C231.867 58.0345 231.905 58.1257 231.905 58.2305V58.9824C231.905 59.1055 231.864 59.208 231.782 59.29C231.705 59.3675 231.607 59.4062 231.488 59.4062H231.235Z" fill="#08496D"/>
<path d="M232.746 67.1172C232.145 66.6979 231.844 66.1055 231.844 65.3398C231.844 64.5742 232.145 63.9863 232.746 63.5762C233.352 63.166 234.132 62.9609 235.084 62.9609H237.347C237.347 62.4277 237.235 62.0563 237.012 61.8467C236.788 61.637 236.396 61.5322 235.836 61.5322C235.28 61.5322 234.888 61.6712 234.66 61.9492C234.437 62.2227 234.161 62.3594 233.833 62.3594H232.814C232.691 62.3594 232.589 62.3206 232.507 62.2432C232.429 62.1611 232.391 62.0609 232.391 61.9424C232.391 60.6344 233.632 59.9805 236.116 59.9805C237.201 59.9805 238.071 60.2243 238.728 60.7119C239.384 61.195 239.712 61.9447 239.712 62.9609V67.1924C239.712 67.3154 239.673 67.4157 239.596 67.4932C239.518 67.5706 239.418 67.6094 239.295 67.6094H237.976C237.853 67.6094 237.752 67.5706 237.675 67.4932C237.597 67.4111 237.559 67.3109 237.559 67.1924V66.9805C236.839 67.4954 236.007 67.7507 235.063 67.7461C234.125 67.7461 233.352 67.5365 232.746 67.1172ZM235.248 64.5127C234.929 64.5127 234.676 64.5902 234.489 64.7451C234.307 64.9001 234.216 65.1006 234.216 65.3467C234.216 65.5928 234.312 65.7956 234.503 65.9551C234.694 66.1146 234.965 66.1943 235.316 66.1943C236.018 66.1943 236.695 65.9893 237.347 65.5791V64.5127H235.248Z" fill="#08496D"/>
<path d="M240.977 62.1885C240.977 60.7165 242.164 59.9805 244.538 59.9805C247.035 59.9805 248.284 60.6344 248.284 61.9424C248.284 62.0609 248.245 62.1611 248.168 62.2432C248.09 62.3206 247.99 62.3594 247.867 62.3594H246.849C246.521 62.3594 246.245 62.2227 246.021 61.9492C245.798 61.6712 245.358 61.5322 244.702 61.5322C243.8 61.5322 243.349 61.751 243.349 62.1885C243.349 62.3936 243.524 62.5645 243.875 62.7012C244.23 62.8379 244.661 62.9587 245.167 63.0635C245.677 63.1637 246.186 63.2936 246.691 63.4531C247.197 63.6126 247.626 63.8678 247.977 64.2188C248.332 64.5651 248.51 65.0049 248.51 65.5381C248.51 67.0101 247.257 67.7461 244.75 67.7461C242.243 67.7461 240.99 67.0944 240.99 65.791C240.99 65.668 241.029 65.5677 241.106 65.4902C241.188 65.4082 241.291 65.3672 241.414 65.3672H242.433C242.761 65.3672 243.036 65.5062 243.26 65.7842C243.483 66.0576 243.923 66.1943 244.579 66.1943C245.623 66.1943 246.145 65.9756 246.145 65.5381C246.145 65.333 245.967 65.1621 245.611 65.0254C245.26 64.8887 244.83 64.7679 244.319 64.6631C243.809 64.5537 243.301 64.4215 242.795 64.2666C242.294 64.1071 241.865 63.8519 241.51 63.501C241.154 63.1501 240.977 62.7126 240.977 62.1885Z" fill="#08496D"/>
<path d="M253.35 66.126L254.286 66.0439H254.539C254.662 66.0439 254.762 66.0827 254.84 66.1602C254.922 66.2376 254.963 66.3379 254.963 66.4609V67.1924C254.963 67.2926 254.922 67.3838 254.84 67.4658C254.762 67.5433 254.662 67.5911 254.539 67.6094C254.074 67.7005 253.468 67.7461 252.721 67.7461C250.761 67.7461 249.781 66.7207 249.781 64.6699V58.2305C249.781 58.1074 249.82 58.0072 249.897 57.9297C249.979 57.8477 250.08 57.8066 250.198 57.8066H251.729C251.848 57.8066 251.946 57.8477 252.023 57.9297C252.105 58.0072 252.146 58.1074 252.146 58.2305V60.5137H254.054C254.172 60.5137 254.27 60.5524 254.348 60.6299C254.43 60.7074 254.471 60.8076 254.471 60.9307V61.7441C254.471 61.8672 254.43 61.9674 254.348 62.0449C254.27 62.1224 254.172 62.1611 254.054 62.1611H252.146V64.6699C252.146 65.1348 252.256 65.4948 252.475 65.75C252.693 66.0007 252.985 66.126 253.35 66.126Z" fill="#08496D"/>
<path d="M264.561 66.126L265.497 66.0439H265.75C265.873 66.0439 265.973 66.0827 266.051 66.1602C266.133 66.2376 266.174 66.3379 266.174 66.4609V67.1924C266.174 67.2926 266.133 67.3838 266.051 67.4658C265.973 67.5433 265.873 67.5911 265.75 67.6094C265.285 67.7005 264.679 67.7461 263.932 67.7461C261.972 67.7461 260.992 66.7207 260.992 64.6699V58.2305C260.992 58.1074 261.031 58.0072 261.108 57.9297C261.19 57.8477 261.291 57.8066 261.409 57.8066H262.94C263.059 57.8066 263.157 57.8477 263.234 57.9297C263.316 58.0072 263.357 58.1074 263.357 58.2305V60.5137H265.265C265.383 60.5137 265.481 60.5524 265.559 60.6299C265.641 60.7074 265.682 60.8076 265.682 60.9307V61.7441C265.682 61.8672 265.641 61.9674 265.559 62.0449C265.481 62.1224 265.383 62.1611 265.265 62.1611H263.357V64.6699C263.357 65.1348 263.467 65.4948 263.686 65.75C263.904 66.0007 264.196 66.126 264.561 66.126Z" fill="#08496D"/>
<path d="M266.516 60.7188C266.479 60.6003 266.459 60.5023 266.454 60.4248C266.454 60.2243 266.568 60.1217 266.796 60.1172H268.067C268.282 60.1172 268.473 60.1719 268.642 60.2812C268.81 60.3861 268.926 60.5319 268.99 60.7188L270.111 64.4033L271.219 60.7188C271.342 60.3177 271.602 60.1172 271.998 60.1172H273.208C273.609 60.1172 273.869 60.3177 273.987 60.7188L275.095 64.4033L276.216 60.7188C276.28 60.5319 276.396 60.3861 276.564 60.2812C276.733 60.1719 276.924 60.1172 277.139 60.1172H278.41C278.633 60.1172 278.747 60.2197 278.752 60.4248C278.752 60.5068 278.731 60.6048 278.69 60.7188L276.619 67.0078C276.555 67.1947 276.441 67.3428 276.277 67.4521C276.113 67.557 275.938 67.6094 275.751 67.6094H274.787C274.6 67.6094 274.423 67.5547 274.254 67.4453C274.085 67.3314 273.974 67.1855 273.919 67.0078L272.606 62.9336L271.287 67.0078C271.232 67.1855 271.121 67.3314 270.952 67.4453C270.784 67.5547 270.606 67.6094 270.419 67.6094H269.455C269.268 67.6094 269.093 67.557 268.929 67.4521C268.765 67.3428 268.651 67.1947 268.587 67.0078L266.516 60.7188Z" fill="#08496D"/>
<path d="M280.311 66.7617C279.6 66.1055 279.244 65.1393 279.244 63.8633C279.244 62.5827 279.6 61.6165 280.311 60.9648C281.021 60.3086 282.042 59.9805 283.373 59.9805C284.708 59.9805 285.731 60.3086 286.442 60.9648C287.153 61.6165 287.509 62.5827 287.509 63.8633C287.509 65.1393 287.153 66.1055 286.442 66.7617C285.731 67.418 284.708 67.7461 283.373 67.7461C282.042 67.7461 281.021 67.418 280.311 66.7617ZM282.04 62.0859C281.757 62.4551 281.616 63.0452 281.616 63.8564C281.616 64.6676 281.757 65.2601 282.04 65.6338C282.323 66.0075 282.767 66.1943 283.373 66.1943C283.984 66.1943 284.43 66.0075 284.713 65.6338C285 65.2601 285.144 64.6676 285.144 63.8564C285.144 63.0452 285 62.4551 284.713 62.0859C284.43 61.7168 283.984 61.5322 283.373 61.5322C282.767 61.5322 282.323 61.7168 282.04 62.0859Z" fill="#08496D"/>
<path d="M293.682 69.4961V60.541C293.682 60.418 293.72 60.3177 293.798 60.2402C293.88 60.1582 293.98 60.1172 294.099 60.1172H295.418C295.536 60.1172 295.634 60.1582 295.712 60.2402C295.794 60.3177 295.835 60.418 295.835 60.541V60.7461C296.555 60.2357 297.391 59.9805 298.344 59.9805C299.296 59.9805 300.091 60.3177 300.729 60.9922C301.368 61.6621 301.687 62.6237 301.687 63.877C301.687 65.1257 301.356 66.0827 300.695 66.748C300.035 67.4134 299.144 67.7461 298.022 67.7461C297.444 67.7461 296.785 67.6299 296.047 67.3975V69.4961C296.047 69.6191 296.006 69.7194 295.924 69.7969C295.846 69.8789 295.748 69.9199 295.63 69.9199H294.099C293.98 69.9199 293.88 69.8789 293.798 69.7969C293.72 69.7194 293.682 69.6191 293.682 69.4961ZM296.047 65.8184C296.635 66.0052 297.129 66.0986 297.53 66.0986C298.155 66.0986 298.597 65.9209 298.856 65.5654C299.121 65.21 299.253 64.6426 299.253 63.8633C299.253 63.084 299.128 62.5189 298.877 62.168C298.631 61.8125 298.259 61.6348 297.763 61.6348C297.271 61.6348 296.699 61.8398 296.047 62.25V65.8184Z" fill="#08496D"/>
<path d="M302.951 67.1924V58.2305C302.951 58.1074 302.99 58.0072 303.067 57.9297C303.149 57.8477 303.25 57.8066 303.368 57.8066H304.899C305.018 57.8066 305.116 57.8477 305.193 57.9297C305.275 58.0072 305.316 58.1074 305.316 58.2305V67.1924C305.316 67.3109 305.275 67.4111 305.193 67.4932C305.116 67.5706 305.018 67.6094 304.899 67.6094H303.368C303.25 67.6094 303.149 67.5706 303.067 67.4932C302.99 67.4111 302.951 67.3109 302.951 67.1924Z" fill="#08496D"/>
<path d="M307.477 67.1172C306.875 66.6979 306.574 66.1055 306.574 65.3398C306.574 64.5742 306.875 63.9863 307.477 63.5762C308.083 63.166 308.862 62.9609 309.814 62.9609H312.077C312.077 62.4277 311.965 62.0563 311.742 61.8467C311.519 61.637 311.127 61.5322 310.566 61.5322C310.01 61.5322 309.618 61.6712 309.391 61.9492C309.167 62.2227 308.892 62.3594 308.563 62.3594H307.545C307.422 62.3594 307.319 62.3206 307.237 62.2432C307.16 62.1611 307.121 62.0609 307.121 61.9424C307.121 60.6344 308.363 59.9805 310.847 59.9805C311.931 59.9805 312.802 60.2243 313.458 60.7119C314.114 61.195 314.442 61.9447 314.442 62.9609V67.1924C314.442 67.3154 314.404 67.4157 314.326 67.4932C314.249 67.5706 314.148 67.6094 314.025 67.6094H312.706C312.583 67.6094 312.483 67.5706 312.405 67.4932C312.328 67.4111 312.289 67.3109 312.289 67.1924V66.9805C311.569 67.4954 310.737 67.7507 309.794 67.7461C308.855 67.7461 308.083 67.5365 307.477 67.1172ZM309.979 64.5127C309.66 64.5127 309.407 64.5902 309.22 64.7451C309.037 64.9001 308.946 65.1006 308.946 65.3467C308.946 65.5928 309.042 65.7956 309.233 65.9551C309.425 66.1146 309.696 66.1943 310.047 66.1943C310.749 66.1943 311.425 65.9893 312.077 65.5791V64.5127H309.979Z" fill="#08496D"/>
<path d="M317.45 68.3203L318.346 68.4365C318.988 68.4365 319.437 67.9648 319.692 67.0215C318.918 67.0215 318.271 66.7891 317.751 66.3242C317.231 65.8548 316.785 65.0231 316.411 63.8291L315.393 60.5273C315.379 60.4909 315.372 60.4499 315.372 60.4043C315.372 60.3542 315.399 60.2949 315.454 60.2266C315.513 60.1582 315.6 60.1217 315.714 60.1172H317.143C317.275 60.1172 317.4 60.1628 317.519 60.2539C317.642 60.3405 317.721 60.4499 317.758 60.582L318.653 63.4805C318.877 64.1914 319.102 64.6836 319.33 64.957C319.562 65.2305 319.836 65.3672 320.15 65.3672L321.511 60.582C321.547 60.4499 321.618 60.3405 321.723 60.2539C321.832 60.1628 321.953 60.1172 322.085 60.1172H323.527C323.641 60.1172 323.726 60.1536 323.78 60.2266C323.835 60.2995 323.862 60.361 323.862 60.4111C323.862 60.4567 323.858 60.4954 323.849 60.5273L322.058 66.9121C321.739 68.0423 321.342 68.849 320.868 69.332C320.399 69.8151 319.793 70.0566 319.05 70.0566C318.307 70.0566 317.781 70.0293 317.471 69.9746C317.165 69.9199 316.974 69.8516 316.896 69.7695C316.819 69.6921 316.78 69.6009 316.78 69.4961V68.7441C316.78 68.6211 316.819 68.5186 316.896 68.4365C316.974 68.359 317.074 68.3203 317.197 68.3203H317.45Z" fill="#08496D"/>
<path d="M325.4 66.748C324.699 66.0827 324.348 65.1257 324.348 63.877C324.348 62.6237 324.701 61.6621 325.407 60.9922C326.114 60.3177 327.093 59.9805 328.347 59.9805C329.6 59.9805 330.577 60.3086 331.279 60.9648C331.981 61.6165 332.332 62.5531 332.332 63.7744V64.1641C332.332 64.2871 332.291 64.3896 332.209 64.4717C332.132 64.5492 332.031 64.5879 331.908 64.5879H326.761C326.806 65.1484 326.966 65.5563 327.239 65.8115C327.517 66.0667 327.959 66.1943 328.565 66.1943C329.172 66.1943 329.586 66.0576 329.81 65.7842C330.033 65.5107 330.309 65.3717 330.637 65.3672H331.655C331.778 65.3672 331.879 65.4082 331.956 65.4902C332.038 65.5677 332.079 65.668 332.079 65.791C332.079 67.099 330.833 67.7507 328.34 67.7461C327.082 67.7461 326.102 67.4134 325.4 66.748ZM326.747 63.1455H329.926C329.88 62.07 329.352 61.5322 328.34 61.5322C327.333 61.5322 326.802 62.07 326.747 63.1455Z" fill="#08496D"/>
<path d="M338.771 61.8535L337.719 61.8125C337.104 61.8125 336.516 62.1497 335.955 62.8242V67.1924C335.955 67.3154 335.914 67.4157 335.832 67.4932C335.755 67.5706 335.657 67.6094 335.538 67.6094H334.007C333.884 67.6094 333.784 67.5706 333.706 67.4932C333.629 67.4157 333.59 67.3154 333.59 67.1924V60.541C333.59 60.418 333.629 60.3177 333.706 60.2402C333.788 60.1582 333.888 60.1172 334.007 60.1172H335.538C335.661 60.1172 335.761 60.1582 335.839 60.2402C335.916 60.3177 335.955 60.418 335.955 60.541V60.9717C336.42 60.6344 336.867 60.3861 337.295 60.2266C337.728 60.0625 338.293 59.9805 338.99 59.9805C339.113 59.9805 339.214 60.0215 339.291 60.1035C339.373 60.181 339.414 60.279 339.414 60.3975V61.4365C339.414 61.5596 339.373 61.6598 339.291 61.7373C339.214 61.8148 339.113 61.8535 338.99 61.8535H338.771Z" fill="#08496D"/>
<path d="M345.307 69.4961V60.541C345.307 60.418 345.345 60.3177 345.423 60.2402C345.505 60.1582 345.605 60.1172 345.724 60.1172H347.043C347.161 60.1172 347.259 60.1582 347.337 60.2402C347.419 60.3177 347.46 60.418 347.46 60.541V60.7461C348.18 60.2357 349.016 59.9805 349.969 59.9805C350.921 59.9805 351.716 60.3177 352.354 60.9922C352.993 61.6621 353.312 62.6237 353.312 63.877C353.312 65.1257 352.981 66.0827 352.32 66.748C351.66 67.4134 350.769 67.7461 349.647 67.7461C349.069 67.7461 348.41 67.6299 347.672 67.3975V69.4961C347.672 69.6191 347.631 69.7194 347.549 69.7969C347.471 69.8789 347.373 69.9199 347.255 69.9199H345.724C345.605 69.9199 345.505 69.8789 345.423 69.7969C345.345 69.7194 345.307 69.6191 345.307 69.4961ZM347.672 65.8184C348.26 66.0052 348.754 66.0986 349.155 66.0986C349.78 66.0986 350.222 65.9209 350.481 65.5654C350.746 65.21 350.878 64.6426 350.878 63.8633C350.878 63.084 350.753 62.5189 350.502 62.168C350.256 61.8125 349.884 61.6348 349.388 61.6348C348.896 61.6348 348.324 61.8398 347.672 62.25V65.8184Z" fill="#08496D"/>
<path d="M354.576 58.6885V58.4561C354.576 58.2145 354.645 58.0231 354.781 57.8818C354.923 57.7406 355.116 57.6699 355.362 57.6699H356.21C356.451 57.6699 356.643 57.7406 356.784 57.8818C356.925 58.0186 356.996 58.21 356.996 58.4561V58.6885C356.996 58.93 356.925 59.1214 356.784 59.2627C356.647 59.404 356.456 59.4746 356.21 59.4746H355.362C355.121 59.4746 354.929 59.404 354.788 59.2627C354.647 59.1214 354.576 58.93 354.576 58.6885ZM354.604 67.1924V60.7051C354.604 60.582 354.642 60.4818 354.72 60.4043C354.802 60.3268 354.902 60.2881 355.021 60.2881H356.552C356.675 60.2881 356.775 60.3291 356.853 60.4111C356.93 60.4886 356.969 60.5866 356.969 60.7051V67.1924C356.969 67.3154 356.928 67.4157 356.846 67.4932C356.768 67.5706 356.67 67.6094 356.552 67.6094H355.021C354.897 67.6094 354.797 67.5706 354.72 67.4932C354.642 67.4157 354.604 67.3154 354.604 67.1924Z" fill="#08496D"/>
<path d="M359.156 67.1172C358.555 66.6979 358.254 66.1055 358.254 65.3398C358.254 64.5742 358.555 63.9863 359.156 63.5762C359.762 63.166 360.542 62.9609 361.494 62.9609H363.757C363.757 62.4277 363.645 62.0563 363.422 61.8467C363.199 61.637 362.807 61.5322 362.246 61.5322C361.69 61.5322 361.298 61.6712 361.07 61.9492C360.847 62.2227 360.571 62.3594 360.243 62.3594H359.225C359.102 62.3594 358.999 62.3206 358.917 62.2432C358.84 62.1611 358.801 62.0609 358.801 61.9424C358.801 60.6344 360.043 59.9805 362.526 59.9805C363.611 59.9805 364.481 60.2243 365.138 60.7119C365.794 61.195 366.122 61.9447 366.122 62.9609V67.1924C366.122 67.3154 366.083 67.4157 366.006 67.4932C365.928 67.5706 365.828 67.6094 365.705 67.6094H364.386C364.263 67.6094 364.162 67.5706 364.085 67.4932C364.007 67.4111 363.969 67.3109 363.969 67.1924V66.9805C363.249 67.4954 362.417 67.7507 361.474 67.7461C360.535 67.7461 359.762 67.5365 359.156 67.1172ZM361.658 64.5127C361.339 64.5127 361.086 64.5902 360.899 64.7451C360.717 64.9001 360.626 65.1006 360.626 65.3467C360.626 65.5928 360.722 65.7956 360.913 65.9551C361.104 66.1146 361.376 66.1943 361.727 66.1943C362.428 66.1943 363.105 65.9893 363.757 65.5791V64.5127H361.658Z" fill="#08496D"/>
<path d="M367.811 67.1924V60.541C367.811 60.418 367.849 60.3177 367.927 60.2402C368.009 60.1582 368.109 60.1172 368.228 60.1172H369.759C369.877 60.1172 369.975 60.1582 370.053 60.2402C370.135 60.3177 370.176 60.418 370.176 60.541V60.9717C370.96 60.3109 371.794 59.9805 372.678 59.9805C373.566 59.9805 374.289 60.2516 374.845 60.7939C375.401 61.3317 375.679 62.1566 375.679 63.2686V67.1924C375.679 67.3109 375.638 67.4111 375.556 67.4932C375.478 67.5706 375.378 67.6094 375.255 67.6094H373.73C373.612 67.6094 373.512 67.5706 373.43 67.4932C373.352 67.4111 373.313 67.3109 373.313 67.1924V63.2686C373.313 62.1794 372.878 61.6348 372.008 61.6348C371.438 61.6348 370.827 61.9606 370.176 62.6123V67.1924C370.176 67.3109 370.135 67.4111 370.053 67.4932C369.975 67.5706 369.877 67.6094 369.759 67.6094H368.228C368.109 67.6094 368.009 67.5706 367.927 67.4932C367.849 67.4111 367.811 67.3109 367.811 67.1924Z" fill="#08496D"/>
<path d="M378.01 66.7617C377.299 66.1055 376.943 65.1393 376.943 63.8633C376.943 62.5827 377.299 61.6165 378.01 60.9648C378.721 60.3086 379.742 59.9805 381.072 59.9805C382.408 59.9805 383.431 60.3086 384.142 60.9648C384.853 61.6165 385.208 62.5827 385.208 63.8633C385.208 65.1393 384.853 66.1055 384.142 66.7617C383.431 67.418 382.408 67.7461 381.072 67.7461C379.742 67.7461 378.721 67.418 378.01 66.7617ZM379.739 62.0859C379.457 62.4551 379.315 63.0452 379.315 63.8564C379.315 64.6676 379.457 65.2601 379.739 65.6338C380.022 66.0075 380.466 66.1943 381.072 66.1943C381.683 66.1943 382.13 66.0075 382.412 65.6338C382.699 65.2601 382.843 64.6676 382.843 63.8564C382.843 63.0452 382.699 62.4551 382.412 62.0859C382.13 61.7168 381.683 61.5322 381.072 61.5322C380.466 61.5322 380.022 61.7168 379.739 62.0859Z" fill="#08496D"/>
<path d="M191.505 59.0986V58.4561C191.505 58.2692 191.566 58.1143 191.689 57.9912C191.812 57.8682 191.967 57.8066 192.154 57.8066H200.829C201.016 57.8066 201.171 57.8682 201.294 57.9912C201.417 58.1143 201.479 58.2692 201.479 58.4561V59.0986C201.479 59.2855 201.417 59.4404 201.294 59.5635C201.171 59.682 201.016 59.7412 200.829 59.7412H197.78V66.9805C197.78 67.1582 197.716 67.3086 197.589 67.4316C197.466 67.5501 197.315 67.6094 197.138 67.6094H195.846C195.668 67.6094 195.515 67.5501 195.388 67.4316C195.265 67.3086 195.203 67.1582 195.203 66.9805V59.7412H192.154C191.967 59.7412 191.812 59.682 191.689 59.5635C191.566 59.4404 191.505 59.2855 191.505 59.0986Z" stroke="white" stroke-width="3" mask="url(#path-20-outside-2_9:54)"/>
<path d="M202.463 67.1924V58.2305C202.463 58.1074 202.502 58.0072 202.579 57.9297C202.661 57.8477 202.761 57.8066 202.88 57.8066H204.411C204.53 57.8066 204.628 57.8477 204.705 57.9297C204.787 58.0072 204.828 58.1074 204.828 58.2305V60.9717C205.612 60.3109 206.446 59.9805 207.33 59.9805C208.219 59.9805 208.941 60.2516 209.497 60.7939C210.053 61.3317 210.331 62.1566 210.331 63.2686V67.1924C210.331 67.3109 210.29 67.4111 210.208 67.4932C210.131 67.5706 210.03 67.6094 209.907 67.6094H208.383C208.264 67.6094 208.164 67.5706 208.082 67.4932C208.005 67.4111 207.966 67.3109 207.966 67.1924V63.2686C207.966 62.1794 207.531 61.6348 206.66 61.6348C206.09 61.6348 205.48 61.9606 204.828 62.6123V67.1924C204.828 67.3109 204.787 67.4111 204.705 67.4932C204.628 67.5706 204.53 67.6094 204.411 67.6094H202.88C202.761 67.6094 202.661 67.5706 202.579 67.4932C202.502 67.4111 202.463 67.3109 202.463 67.1924Z" stroke="white" stroke-width="3" mask="url(#path-20-outside-2_9:54)"/>
<path d="M212.648 66.748C211.947 66.0827 211.596 65.1257 211.596 63.877C211.596 62.6237 211.949 61.6621 212.655 60.9922C213.362 60.3177 214.341 59.9805 215.595 59.9805C216.848 59.9805 217.826 60.3086 218.527 60.9648C219.229 61.6165 219.58 62.5531 219.58 63.7744V64.1641C219.58 64.2871 219.539 64.3896 219.457 64.4717C219.38 64.5492 219.279 64.5879 219.156 64.5879H214.009C214.054 65.1484 214.214 65.5563 214.487 65.8115C214.765 66.0667 215.207 66.1943 215.813 66.1943C216.42 66.1943 216.834 66.0576 217.058 65.7842C217.281 65.5107 217.557 65.3717 217.885 65.3672H218.903C219.026 65.3672 219.127 65.4082 219.204 65.4902C219.286 65.5677 219.327 65.668 219.327 65.791C219.327 67.099 218.081 67.7507 215.588 67.7461C214.33 67.7461 213.35 67.4134 212.648 66.748ZM213.995 63.1455H217.174C217.128 62.07 216.6 61.5322 215.588 61.5322C214.581 61.5322 214.05 62.07 213.995 63.1455Z" stroke="white" stroke-width="3" mask="url(#path-20-outside-2_9:54)"/>
<path d="M231.235 59.4062L230.292 59.29C229.385 59.29 228.795 59.4131 228.521 59.6592C228.248 59.9007 228.111 60.4043 228.111 61.1699V61.2793H230.586C230.709 61.2793 230.809 61.3203 230.887 61.4023C230.969 61.4798 231.01 61.5801 231.01 61.7031V62.5166C231.01 62.6396 230.969 62.7399 230.887 62.8174C230.809 62.8949 230.709 62.9336 230.586 62.9336H228.111V67.1924C228.111 67.3154 228.07 67.4157 227.988 67.4932C227.911 67.5706 227.813 67.6094 227.694 67.6094H226.163C226.04 67.6094 225.94 67.5706 225.862 67.4932C225.785 67.4157 225.746 67.3154 225.746 67.1924V61.1699C225.746 59.8984 226.035 58.9984 226.614 58.4697C227.193 57.9365 228.209 57.6699 229.663 57.6699C230.41 57.6699 230.932 57.6973 231.229 57.752C231.525 57.8066 231.712 57.875 231.789 57.957C231.867 58.0345 231.905 58.1257 231.905 58.2305V58.9824C231.905 59.1055 231.864 59.208 231.782 59.29C231.705 59.3675 231.607 59.4062 231.488 59.4062H231.235Z" stroke="white" stroke-width="3" mask="url(#path-20-outside-2_9:54)"/>
<path d="M232.746 67.1172C232.145 66.6979 231.844 66.1055 231.844 65.3398C231.844 64.5742 232.145 63.9863 232.746 63.5762C233.352 63.166 234.132 62.9609 235.084 62.9609H237.347C237.347 62.4277 237.235 62.0563 237.012 61.8467C236.788 61.637 236.396 61.5322 235.836 61.5322C235.28 61.5322 234.888 61.6712 234.66 61.9492C234.437 62.2227 234.161 62.3594 233.833 62.3594H232.814C232.691 62.3594 232.589 62.3206 232.507 62.2432C232.429 62.1611 232.391 62.0609 232.391 61.9424C232.391 60.6344 233.632 59.9805 236.116 59.9805C237.201 59.9805 238.071 60.2243 238.728 60.7119C239.384 61.195 239.712 61.9447 239.712 62.9609V67.1924C239.712 67.3154 239.673 67.4157 239.596 67.4932C239.518 67.5706 239.418 67.6094 239.295 67.6094H237.976C237.853 67.6094 237.752 67.5706 237.675 67.4932C237.597 67.4111 237.559 67.3109 237.559 67.1924V66.9805C236.839 67.4954 236.007 67.7507 235.063 67.7461C234.125 67.7461 233.352 67.5365 232.746 67.1172ZM235.248 64.5127C234.929 64.5127 234.676 64.5902 234.489 64.7451C234.307 64.9001 234.216 65.1006 234.216 65.3467C234.216 65.5928 234.312 65.7956 234.503 65.9551C234.694 66.1146 234.965 66.1943 235.316 66.1943C236.018 66.1943 236.695 65.9893 237.347 65.5791V64.5127H235.248Z" stroke="white" stroke-width="3" mask="url(#path-20-outside-2_9:54)"/>
<path d="M240.977 62.1885C240.977 60.7165 242.164 59.9805 244.538 59.9805C247.035 59.9805 248.284 60.6344 248.284 61.9424C248.284 62.0609 248.245 62.1611 248.168 62.2432C248.09 62.3206 247.99 62.3594 247.867 62.3594H246.849C246.521 62.3594 246.245 62.2227 246.021 61.9492C245.798 61.6712 245.358 61.5322 244.702 61.5322C243.8 61.5322 243.349 61.751 243.349 62.1885C243.349 62.3936 243.524 62.5645 243.875 62.7012C244.23 62.8379 244.661 62.9587 245.167 63.0635C245.677 63.1637 246.186 63.2936 246.691 63.4531C247.197 63.6126 247.626 63.8678 247.977 64.2188C248.332 64.5651 248.51 65.0049 248.51 65.5381C248.51 67.0101 247.257 67.7461 244.75 67.7461C242.243 67.7461 240.99 67.0944 240.99 65.791C240.99 65.668 241.029 65.5677 241.106 65.4902C241.188 65.4082 241.291 65.3672 241.414 65.3672H242.433C242.761 65.3672 243.036 65.5062 243.26 65.7842C243.483 66.0576 243.923 66.1943 244.579 66.1943C245.623 66.1943 246.145 65.9756 246.145 65.5381C246.145 65.333 245.967 65.1621 245.611 65.0254C245.26 64.8887 244.83 64.7679 244.319 64.6631C243.809 64.5537 243.301 64.4215 242.795 64.2666C242.294 64.1071 241.865 63.8519 241.51 63.501C241.154 63.1501 240.977 62.7126 240.977 62.1885Z" stroke="white" stroke-width="3" mask="url(#path-20-outside-2_9:54)"/>
<path d="M253.35 66.126L254.286 66.0439H254.539C254.662 66.0439 254.762 66.0827 254.84 66.1602C254.922 66.2376 254.963 66.3379 254.963 66.4609V67.1924C254.963 67.2926 254.922 67.3838 254.84 67.4658C254.762 67.5433 254.662 67.5911 254.539 67.6094C254.074 67.7005 253.468 67.7461 252.721 67.7461C250.761 67.7461 249.781 66.7207 249.781 64.6699V58.2305C249.781 58.1074 249.82 58.0072 249.897 57.9297C249.979 57.8477 250.08 57.8066 250.198 57.8066H251.729C251.848 57.8066 251.946 57.8477 252.023 57.9297C252.105 58.0072 252.146 58.1074 252.146 58.2305V60.5137H254.054C254.172 60.5137 254.27 60.5524 254.348 60.6299C254.43 60.7074 254.471 60.8076 254.471 60.9307V61.7441C254.471 61.8672 254.43 61.9674 254.348 62.0449C254.27 62.1224 254.172 62.1611 254.054 62.1611H252.146V64.6699C252.146 65.1348 252.256 65.4948 252.475 65.75C252.693 66.0007 252.985 66.126 253.35 66.126Z" stroke="white" stroke-width="3" mask="url(#path-20-outside-2_9:54)"/>
<path d="M264.561 66.126L265.497 66.0439H265.75C265.873 66.0439 265.973 66.0827 266.051 66.1602C266.133 66.2376 266.174 66.3379 266.174 66.4609V67.1924C266.174 67.2926 266.133 67.3838 266.051 67.4658C265.973 67.5433 265.873 67.5911 265.75 67.6094C265.285 67.7005 264.679 67.7461 263.932 67.7461C261.972 67.7461 260.992 66.7207 260.992 64.6699V58.2305C260.992 58.1074 261.031 58.0072 261.108 57.9297C261.19 57.8477 261.291 57.8066 261.409 57.8066H262.94C263.059 57.8066 263.157 57.8477 263.234 57.9297C263.316 58.0072 263.357 58.1074 263.357 58.2305V60.5137H265.265C265.383 60.5137 265.481 60.5524 265.559 60.6299C265.641 60.7074 265.682 60.8076 265.682 60.9307V61.7441C265.682 61.8672 265.641 61.9674 265.559 62.0449C265.481 62.1224 265.383 62.1611 265.265 62.1611H263.357V64.6699C263.357 65.1348 263.467 65.4948 263.686 65.75C263.904 66.0007 264.196 66.126 264.561 66.126Z" stroke="white" stroke-width="3" mask="url(#path-20-outside-2_9:54)"/>
<path d="M266.516 60.7188C266.479 60.6003 266.459 60.5023 266.454 60.4248C266.454 60.2243 266.568 60.1217 266.796 60.1172H268.067C268.282 60.1172 268.473 60.1719 268.642 60.2812C268.81 60.3861 268.926 60.5319 268.99 60.7188L270.111 64.4033L271.219 60.7188C271.342 60.3177 271.602 60.1172 271.998 60.1172H273.208C273.609 60.1172 273.869 60.3177 273.987 60.7188L275.095 64.4033L276.216 60.7188C276.28 60.5319 276.396 60.3861 276.564 60.2812C276.733 60.1719 276.924 60.1172 277.139 60.1172H278.41C278.633 60.1172 278.747 60.2197 278.752 60.4248C278.752 60.5068 278.731 60.6048 278.69 60.7188L276.619 67.0078C276.555 67.1947 276.441 67.3428 276.277 67.4521C276.113 67.557 275.938 67.6094 275.751 67.6094H274.787C274.6 67.6094 274.423 67.5547 274.254 67.4453C274.085 67.3314 273.974 67.1855 273.919 67.0078L272.606 62.9336L271.287 67.0078C271.232 67.1855 271.121 67.3314 270.952 67.4453C270.784 67.5547 270.606 67.6094 270.419 67.6094H269.455C269.268 67.6094 269.093 67.557 268.929 67.4521C268.765 67.3428 268.651 67.1947 268.587 67.0078L266.516 60.7188Z" stroke="white" stroke-width="3" mask="url(#path-20-outside-2_9:54)"/>
<path d="M280.311 66.7617C279.6 66.1055 279.244 65.1393 279.244 63.8633C279.244 62.5827 279.6 61.6165 280.311 60.9648C281.021 60.3086 282.042 59.9805 283.373 59.9805C284.708 59.9805 285.731 60.3086 286.442 60.9648C287.153 61.6165 287.509 62.5827 287.509 63.8633C287.509 65.1393 287.153 66.1055 286.442 66.7617C285.731 67.418 284.708 67.7461 283.373 67.7461C282.042 67.7461 281.021 67.418 280.311 66.7617ZM282.04 62.0859C281.757 62.4551 281.616 63.0452 281.616 63.8564C281.616 64.6676 281.757 65.2601 282.04 65.6338C282.323 66.0075 282.767 66.1943 283.373 66.1943C283.984 66.1943 284.43 66.0075 284.713 65.6338C285 65.2601 285.144 64.6676 285.144 63.8564C285.144 63.0452 285 62.4551 284.713 62.0859C284.43 61.7168 283.984 61.5322 283.373 61.5322C282.767 61.5322 282.323 61.7168 282.04 62.0859Z" stroke="white" stroke-width="3" mask="url(#path-20-outside-2_9:54)"/>
<path d="M293.682 69.4961V60.541C293.682 60.418 293.72 60.3177 293.798 60.2402C293.88 60.1582 293.98 60.1172 294.099 60.1172H295.418C295.536 60.1172 295.634 60.1582 295.712 60.2402C295.794 60.3177 295.835 60.418 295.835 60.541V60.7461C296.555 60.2357 297.391 59.9805 298.344 59.9805C299.296 59.9805 300.091 60.3177 300.729 60.9922C301.368 61.6621 301.687 62.6237 301.687 63.877C301.687 65.1257 301.356 66.0827 300.695 66.748C300.035 67.4134 299.144 67.7461 298.022 67.7461C297.444 67.7461 296.785 67.6299 296.047 67.3975V69.4961C296.047 69.6191 296.006 69.7194 295.924 69.7969C295.846 69.8789 295.748 69.9199 295.63 69.9199H294.099C293.98 69.9199 293.88 69.8789 293.798 69.7969C293.72 69.7194 293.682 69.6191 293.682 69.4961ZM296.047 65.8184C296.635 66.0052 297.129 66.0986 297.53 66.0986C298.155 66.0986 298.597 65.9209 298.856 65.5654C299.121 65.21 299.253 64.6426 299.253 63.8633C299.253 63.084 299.128 62.5189 298.877 62.168C298.631 61.8125 298.259 61.6348 297.763 61.6348C297.271 61.6348 296.699 61.8398 296.047 62.25V65.8184Z" stroke="white" stroke-width="3" mask="url(#path-20-outside-2_9:54)"/>
<path d="M302.951 67.1924V58.2305C302.951 58.1074 302.99 58.0072 303.067 57.9297C303.149 57.8477 303.25 57.8066 303.368 57.8066H304.899C305.018 57.8066 305.116 57.8477 305.193 57.9297C305.275 58.0072 305.316 58.1074 305.316 58.2305V67.1924C305.316 67.3109 305.275 67.4111 305.193 67.4932C305.116 67.5706 305.018 67.6094 304.899 67.6094H303.368C303.25 67.6094 303.149 67.5706 303.067 67.4932C302.99 67.4111 302.951 67.3109 302.951 67.1924Z" stroke="white" stroke-width="3" mask="url(#path-20-outside-2_9:54)"/>
<path d="M307.477 67.1172C306.875 66.6979 306.574 66.1055 306.574 65.3398C306.574 64.5742 306.875 63.9863 307.477 63.5762C308.083 63.166 308.862 62.9609 309.814 62.9609H312.077C312.077 62.4277 311.965 62.0563 311.742 61.8467C311.519 61.637 311.127 61.5322 310.566 61.5322C310.01 61.5322 309.618 61.6712 309.391 61.9492C309.167 62.2227 308.892 62.3594 308.563 62.3594H307.545C307.422 62.3594 307.319 62.3206 307.237 62.2432C307.16 62.1611 307.121 62.0609 307.121 61.9424C307.121 60.6344 308.363 59.9805 310.847 59.9805C311.931 59.9805 312.802 60.2243 313.458 60.7119C314.114 61.195 314.442 61.9447 314.442 62.9609V67.1924C314.442 67.3154 314.404 67.4157 314.326 67.4932C314.249 67.5706 314.148 67.6094 314.025 67.6094H312.706C312.583 67.6094 312.483 67.5706 312.405 67.4932C312.328 67.4111 312.289 67.3109 312.289 67.1924V66.9805C311.569 67.4954 310.737 67.7507 309.794 67.7461C308.855 67.7461 308.083 67.5365 307.477 67.1172ZM309.979 64.5127C309.66 64.5127 309.407 64.5902 309.22 64.7451C309.037 64.9001 308.946 65.1006 308.946 65.3467C308.946 65.5928 309.042 65.7956 309.233 65.9551C309.425 66.1146 309.696 66.1943 310.047 66.1943C310.749 66.1943 311.425 65.9893 312.077 65.5791V64.5127H309.979Z" stroke="white" stroke-width="3" mask="url(#path-20-outside-2_9:54)"/>
<path d="M317.45 68.3203L318.346 68.4365C318.988 68.4365 319.437 67.9648 319.692 67.0215C318.918 67.0215 318.271 66.7891 317.751 66.3242C317.231 65.8548 316.785 65.0231 316.411 63.8291L315.393 60.5273C315.379 60.4909 315.372 60.4499 315.372 60.4043C315.372 60.3542 315.399 60.2949 315.454 60.2266C315.513 60.1582 315.6 60.1217 315.714 60.1172H317.143C317.275 60.1172 317.4 60.1628 317.519 60.2539C317.642 60.3405 317.721 60.4499 317.758 60.582L318.653 63.4805C318.877 64.1914 319.102 64.6836 319.33 64.957C319.562 65.2305 319.836 65.3672 320.15 65.3672L321.511 60.582C321.547 60.4499 321.618 60.3405 321.723 60.2539C321.832 60.1628 321.953 60.1172 322.085 60.1172H323.527C323.641 60.1172 323.726 60.1536 323.78 60.2266C323.835 60.2995 323.862 60.361 323.862 60.4111C323.862 60.4567 323.858 60.4954 323.849 60.5273L322.058 66.9121C321.739 68.0423 321.342 68.849 320.868 69.332C320.399 69.8151 319.793 70.0566 319.05 70.0566C318.307 70.0566 317.781 70.0293 317.471 69.9746C317.165 69.9199 316.974 69.8516 316.896 69.7695C316.819 69.6921 316.78 69.6009 316.78 69.4961V68.7441C316.78 68.6211 316.819 68.5186 316.896 68.4365C316.974 68.359 317.074 68.3203 317.197 68.3203H317.45Z" stroke="white" stroke-width="3" mask="url(#path-20-outside-2_9:54)"/>
<path d="M325.4 66.748C324.699 66.0827 324.348 65.1257 324.348 63.877C324.348 62.6237 324.701 61.6621 325.407 60.9922C326.114 60.3177 327.093 59.9805 328.347 59.9805C329.6 59.9805 330.577 60.3086 331.279 60.9648C331.981 61.6165 332.332 62.5531 332.332 63.7744V64.1641C332.332 64.2871 332.291 64.3896 332.209 64.4717C332.132 64.5492 332.031 64.5879 331.908 64.5879H326.761C326.806 65.1484 326.966 65.5563 327.239 65.8115C327.517 66.0667 327.959 66.1943 328.565 66.1943C329.172 66.1943 329.586 66.0576 329.81 65.7842C330.033 65.5107 330.309 65.3717 330.637 65.3672H331.655C331.778 65.3672 331.879 65.4082 331.956 65.4902C332.038 65.5677 332.079 65.668 332.079 65.791C332.079 67.099 330.833 67.7507 328.34 67.7461C327.082 67.7461 326.102 67.4134 325.4 66.748ZM326.747 63.1455H329.926C329.88 62.07 329.352 61.5322 328.34 61.5322C327.333 61.5322 326.802 62.07 326.747 63.1455Z" stroke="white" stroke-width="3" mask="url(#path-20-outside-2_9:54)"/>
<path d="M338.771 61.8535L337.719 61.8125C337.104 61.8125 336.516 62.1497 335.955 62.8242V67.1924C335.955 67.3154 335.914 67.4157 335.832 67.4932C335.755 67.5706 335.657 67.6094 335.538 67.6094H334.007C333.884 67.6094 333.784 67.5706 333.706 67.4932C333.629 67.4157 333.59 67.3154 333.59 67.1924V60.541C333.59 60.418 333.629 60.3177 333.706 60.2402C333.788 60.1582 333.888 60.1172 334.007 60.1172H335.538C335.661 60.1172 335.761 60.1582 335.839 60.2402C335.916 60.3177 335.955 60.418 335.955 60.541V60.9717C336.42 60.6344 336.867 60.3861 337.295 60.2266C337.728 60.0625 338.293 59.9805 338.99 59.9805C339.113 59.9805 339.214 60.0215 339.291 60.1035C339.373 60.181 339.414 60.279 339.414 60.3975V61.4365C339.414 61.5596 339.373 61.6598 339.291 61.7373C339.214 61.8148 339.113 61.8535 338.99 61.8535H338.771Z" stroke="white" stroke-width="3" mask="url(#path-20-outside-2_9:54)"/>
<path d="M345.307 69.4961V60.541C345.307 60.418 345.345 60.3177 345.423 60.2402C345.505 60.1582 345.605 60.1172 345.724 60.1172H347.043C347.161 60.1172 347.259 60.1582 347.337 60.2402C347.419 60.3177 347.46 60.418 347.46 60.541V60.7461C348.18 60.2357 349.016 59.9805 349.969 59.9805C350.921 59.9805 351.716 60.3177 352.354 60.9922C352.993 61.6621 353.312 62.6237 353.312 63.877C353.312 65.1257 352.981 66.0827 352.32 66.748C351.66 67.4134 350.769 67.7461 349.647 67.7461C349.069 67.7461 348.41 67.6299 347.672 67.3975V69.4961C347.672 69.6191 347.631 69.7194 347.549 69.7969C347.471 69.8789 347.373 69.9199 347.255 69.9199H345.724C345.605 69.9199 345.505 69.8789 345.423 69.7969C345.345 69.7194 345.307 69.6191 345.307 69.4961ZM347.672 65.8184C348.26 66.0052 348.754 66.0986 349.155 66.0986C349.78 66.0986 350.222 65.9209 350.481 65.5654C350.746 65.21 350.878 64.6426 350.878 63.8633C350.878 63.084 350.753 62.5189 350.502 62.168C350.256 61.8125 349.884 61.6348 349.388 61.6348C348.896 61.6348 348.324 61.8398 347.672 62.25V65.8184Z" stroke="white" stroke-width="3" mask="url(#path-20-outside-2_9:54)"/>
<path d="M354.576 58.6885V58.4561C354.576 58.2145 354.645 58.0231 354.781 57.8818C354.923 57.7406 355.116 57.6699 355.362 57.6699H356.21C356.451 57.6699 356.643 57.7406 356.784 57.8818C356.925 58.0186 356.996 58.21 356.996 58.4561V58.6885C356.996 58.93 356.925 59.1214 356.784 59.2627C356.647 59.404 356.456 59.4746 356.21 59.4746H355.362C355.121 59.4746 354.929 59.404 354.788 59.2627C354.647 59.1214 354.576 58.93 354.576 58.6885ZM354.604 67.1924V60.7051C354.604 60.582 354.642 60.4818 354.72 60.4043C354.802 60.3268 354.902 60.2881 355.021 60.2881H356.552C356.675 60.2881 356.775 60.3291 356.853 60.4111C356.93 60.4886 356.969 60.5866 356.969 60.7051V67.1924C356.969 67.3154 356.928 67.4157 356.846 67.4932C356.768 67.5706 356.67 67.6094 356.552 67.6094H355.021C354.897 67.6094 354.797 67.5706 354.72 67.4932C354.642 67.4157 354.604 67.3154 354.604 67.1924Z" stroke="white" stroke-width="3" mask="url(#path-20-outside-2_9:54)"/>
<path d="M359.156 67.1172C358.555 66.6979 358.254 66.1055 358.254 65.3398C358.254 64.5742 358.555 63.9863 359.156 63.5762C359.762 63.166 360.542 62.9609 361.494 62.9609H363.757C363.757 62.4277 363.645 62.0563 363.422 61.8467C363.199 61.637 362.807 61.5322 362.246 61.5322C361.69 61.5322 361.298 61.6712 361.07 61.9492C360.847 62.2227 360.571 62.3594 360.243 62.3594H359.225C359.102 62.3594 358.999 62.3206 358.917 62.2432C358.84 62.1611 358.801 62.0609 358.801 61.9424C358.801 60.6344 360.043 59.9805 362.526 59.9805C363.611 59.9805 364.481 60.2243 365.138 60.7119C365.794 61.195 366.122 61.9447 366.122 62.9609V67.1924C366.122 67.3154 366.083 67.4157 366.006 67.4932C365.928 67.5706 365.828 67.6094 365.705 67.6094H364.386C364.263 67.6094 364.162 67.5706 364.085 67.4932C364.007 67.4111 363.969 67.3109 363.969 67.1924V66.9805C363.249 67.4954 362.417 67.7507 361.474 67.7461C360.535 67.7461 359.762 67.5365 359.156 67.1172ZM361.658 64.5127C361.339 64.5127 361.086 64.5902 360.899 64.7451C360.717 64.9001 360.626 65.1006 360.626 65.3467C360.626 65.5928 360.722 65.7956 360.913 65.9551C361.104 66.1146 361.376 66.1943 361.727 66.1943C362.428 66.1943 363.105 65.9893 363.757 65.5791V64.5127H361.658Z" stroke="white" stroke-width="3" mask="url(#path-20-outside-2_9:54)"/>
<path d="M367.811 67.1924V60.541C367.811 60.418 367.849 60.3177 367.927 60.2402C368.009 60.1582 368.109 60.1172 368.228 60.1172H369.759C369.877 60.1172 369.975 60.1582 370.053 60.2402C370.135 60.3177 370.176 60.418 370.176 60.541V60.9717C370.96 60.3109 371.794 59.9805 372.678 59.9805C373.566 59.9805 374.289 60.2516 374.845 60.7939C375.401 61.3317 375.679 62.1566 375.679 63.2686V67.1924C375.679 67.3109 375.638 67.4111 375.556 67.4932C375.478 67.5706 375.378 67.6094 375.255 67.6094H373.73C373.612 67.6094 373.512 67.5706 373.43 67.4932C373.352 67.4111 373.313 67.3109 373.313 67.1924V63.2686C373.313 62.1794 372.878 61.6348 372.008 61.6348C371.438 61.6348 370.827 61.9606 370.176 62.6123V67.1924C370.176 67.3109 370.135 67.4111 370.053 67.4932C369.975 67.5706 369.877 67.6094 369.759 67.6094H368.228C368.109 67.6094 368.009 67.5706 367.927 67.4932C367.849 67.4111 367.811 67.3109 367.811 67.1924Z" stroke="white" stroke-width="3" mask="url(#path-20-outside-2_9:54)"/>
<path d="M378.01 66.7617C377.299 66.1055 376.943 65.1393 376.943 63.8633C376.943 62.5827 377.299 61.6165 378.01 60.9648C378.721 60.3086 379.742 59.9805 381.072 59.9805C382.408 59.9805 383.431 60.3086 384.142 60.9648C384.853 61.6165 385.208 62.5827 385.208 63.8633C385.208 65.1393 384.853 66.1055 384.142 66.7617C383.431 67.418 382.408 67.7461 381.072 67.7461C379.742 67.7461 378.721 67.418 378.01 66.7617ZM379.739 62.0859C379.457 62.4551 379.315 63.0452 379.315 63.8564C379.315 64.6676 379.457 65.2601 379.739 65.6338C380.022 66.0075 380.466 66.1943 381.072 66.1943C381.683 66.1943 382.13 66.0075 382.412 65.6338C382.699 65.2601 382.843 64.6676 382.843 63.8564C382.843 63.0452 382.699 62.4551 382.412 62.0859C382.13 61.7168 381.683 61.5322 381.072 61.5322C380.466 61.5322 380.022 61.7168 379.739 62.0859Z" stroke="white" stroke-width="3" mask="url(#path-20-outside-2_9:54)"/>
<path fill-rule="evenodd" clip-rule="evenodd" d="M269 139.014V127.34L271 123.609V139.014H269Z" fill="white"/>
<path fill-rule="evenodd" clip-rule="evenodd" d="M291 139.014V127.34L293 123.609V139.014H291Z" fill="white"/>
<path fill-rule="evenodd" clip-rule="evenodd" d="M313 139.014V127.34L315 123.609V139.014H313Z" fill="white"/>
<defs>
<filter id="filter0_i_9:54" x="169.246" y="49.0529" width="244.466" height="119.201" filterUnits="userSpaceOnUse" color-interpolation-filters="sRGB">
<feFlood flood-opacity="0" result="BackgroundImageFix"/>
<feBlend mode="normal" in="SourceGraphic" in2="BackgroundImageFix" result="shape"/>
<feColorMatrix in="SourceAlpha" type="matrix" values="0 0 0 0 0 0 0 0 0 0 0 0 0 0 0 0 0 0 127 0" result="hardAlpha"/>
<feOffset dy="63"/>
<feComposite in2="hardAlpha" operator="arithmetic" k2="-1" k3="1"/>
<feColorMatrix type="matrix" values="0 0 0 0 1 0 0 0 0 1 0 0 0 0 1 0 0 0 0.51 0"/>
<feBlend mode="normal" in2="shape" result="effect1_innerShadow_9:54"/>
</filter>
<filter id="filter1_i_9:54" x="310" y="77.0529" width="23.0719" height="94.7725" filterUnits="userSpaceOnUse" color-interpolation-filters="sRGB">
<feFlood flood-opacity="0" result="BackgroundImageFix"/>
<feBlend mode="normal" in="SourceGraphic" in2="BackgroundImageFix" result="shape"/>
<feColorMatrix in="SourceAlpha" type="matrix" values="0 0 0 0 0 0 0 0 0 0 0 0 0 0 0 0 0 0 127 0" result="hardAlpha"/>
<feMorphology radius="7" operator="erode" in="SourceAlpha" result="effect1_innerShadow_9:54"/>
<feOffset dx="1" dy="3"/>
<feGaussianBlur stdDeviation="2"/>
<feComposite in2="hardAlpha" operator="arithmetic" k2="-1" k3="1"/>
<feColorMatrix type="matrix" values="0 0 0 0 0 0 0 0 0 0 0 0 0 0 0 0 0 0 0.07 0"/>
<feBlend mode="normal" in2="shape" result="effect1_innerShadow_9:54"/>
</filter>
<filter id="filter2_i_9:54" x="288" y="77.0529" width="23.0719" height="94.7725" filterUnits="userSpaceOnUse" color-interpolation-filters="sRGB">
<feFlood flood-opacity="0" result="BackgroundImageFix"/>
<feBlend mode="normal" in="SourceGraphic" in2="BackgroundImageFix" result="shape"/>
<feColorMatrix in="SourceAlpha" type="matrix" values="0 0 0 0 0 0 0 0 0 0 0 0 0 0 0 0 0 0 127 0" result="hardAlpha"/>
<feMorphology radius="7" operator="erode" in="SourceAlpha" result="effect1_innerShadow_9:54"/>
<feOffset dx="1" dy="3"/>
<feGaussianBlur stdDeviation="2"/>
<feComposite in2="hardAlpha" operator="arithmetic" k2="-1" k3="1"/>
<feColorMatrix type="matrix" values="0 0 0 0 0 0 0 0 0 0 0 0 0 0 0 0 0 0 0.07 0"/>
<feBlend mode="normal" in2="shape" result="effect1_innerShadow_9:54"/>
</filter>
<filter id="filter3_i_9:54" x="266" y="76.6094" width="23.0719" height="94.7725" filterUnits="userSpaceOnUse" color-interpolation-filters="sRGB">
<feFlood flood-opacity="0" result="BackgroundImageFix"/>
<feBlend mode="normal" in="SourceGraphic" in2="BackgroundImageFix" result="shape"/>
<feColorMatrix in="SourceAlpha" type="matrix" values="0 0 0 0 0 0 0 0 0 0 0 0 0 0 0 0 0 0 127 0" result="hardAlpha"/>
<feMorphology radius="7" operator="erode" in="SourceAlpha" result="effect1_innerShadow_9:54"/>
<feOffset dx="1" dy="3"/>
<feGaussianBlur stdDeviation="2"/>
<feComposite in2="hardAlpha" operator="arithmetic" k2="-1" k3="1"/>
<feColorMatrix type="matrix" values="0 0 0 0 0 0 0 0 0 0 0 0 0 0 0 0 0 0 0.07 0"/>
<feBlend mode="normal" in2="shape" result="effect1_innerShadow_9:54"/>
</filter>
<filter id="filter4_i_9:54" x="244" y="76.6094" width="23.0719" height="94.7725" filterUnits="userSpaceOnUse" color-interpolation-filters="sRGB">
<feFlood flood-opacity="0" result="BackgroundImageFix"/>
<feBlend mode="normal" in="SourceGraphic" in2="BackgroundImageFix" result="shape"/>
<feColorMatrix in="SourceAlpha" type="matrix" values="0 0 0 0 0 0 0 0 0 0 0 0 0 0 0 0 0 0 127 0" result="hardAlpha"/>
<feMorphology radius="7" operator="erode" in="SourceAlpha" result="effect1_innerShadow_9:54"/>
<feOffset dx="1" dy="3"/>
<feGaussianBlur stdDeviation="2"/>
<feComposite in2="hardAlpha" operator="arithmetic" k2="-1" k3="1"/>
<feColorMatrix type="matrix" values="0 0 0 0 0 0 0 0 0 0 0 0 0 0 0 0 0 0 0.07 0"/>
<feBlend mode="normal" in2="shape" result="effect1_innerShadow_9:54"/>
</filter>
<filter id="filter5_i_9:54" x="241.629" y="68.6512" width="92.9341" height="20.7784" filterUnits="userSpaceOnUse" color-interpolation-filters="sRGB">
<feFlood flood-opacity="0" result="BackgroundImageFix"/>
<feBlend mode="normal" in="SourceGraphic" in2="BackgroundImageFix" result="shape"/>
<feColorMatrix in="SourceAlpha" type="matrix" values="0 0 0 0 0 0 0 0 0 0 0 0 0 0 0 0 0 0 127 0" result="hardAlpha"/>
<feMorphology radius="1" operator="dilate" in="SourceAlpha" result="effect1_innerShadow_9:54"/>
<feOffset dy="-8"/>
<feGaussianBlur stdDeviation="4.5"/>
<feComposite in2="hardAlpha" operator="arithmetic" k2="-1" k3="1"/>
<feColorMatrix type="matrix" values="0 0 0 0 0 0 0 0 0 0 0 0 0 0 0 0 0 0 0.25 0"/>
<feBlend mode="normal" in2="shape" result="effect1_innerShadow_9:54"/>
</filter>
</defs>
</svg>
